<svg xmlns="http://www.w3.org/2000/svg" fill="none" viewBox="0 0 651 417">
  <g fill="#000" clip-path="url(#a)">
    <path d="M204.2 206.5a121.2 121.2 0 0 1 0 178v-178Zm-39.7-24.7v227.4a122 122 0 0 0 26.5-14V195.8a122 122 0 0 0-26.5-14Zm-29.5-7.1v241.6a121 121 0 0 0 15-2.7V177.4c-4.9-1.2-9.9-2-15-2.7ZM121.5 417a121.5 121.5 0 1 1 0-243v243ZM447 295.5c0 35.2-15 66.8-38.8 89v-89H447ZM369-366v775c9.3-5.3 18-12.4 26-20.8V-366h-26Zm-30 540.7v241.6a121 121 0 0 0 15-2.7V177.4c-4.9-1.2-9.9-2-15-2.7Z"/>
    <path d="M325.5 417a121.5 121.5 0 1 1 0-243v243Zm82.7-783H447v662h-38.8zM651 295.5c0 35.2-15 66.8-38.8 89v-89H651ZM573-366v775c9.3-5.3 18-12.4 26-20.8V-366h-26Zm-30 540.7v241.6a121 121 0 0 0 15-2.7V177.4c-4.9-1.2-9.9-2-15-2.7Z"/>
    <path d="M529.5 417a121.5 121.5 0 1 1 0-243v243Zm82.7-783H651v662h-38.8z"/>
  </g>
  <defs>
    <clipPath id="a">
      <path fill="#fff" d="M0 0h651v417H0z"/>
    </clipPath>
  </defs>
</svg>