<svg xmlns="http://www.w3.org/2000/svg" fill="none" viewBox="0 0 823 823">
  <g clip-path="url(#a)">
    <rect width="823" height="823" fill="#342B27" rx="411.5"/>
    <path stroke="#fff" stroke-opacity=".33" d="M206.5 0v823m207-823v826m206-826v826M-.5 619h823M-.5 412h826M-.5 206h826"/>
    <path fill="#fff" d="M321.9 493.43a121.17 121.17 0 0 1 90.37 35.5 121.17 121.17 0 0 1 35.5 90.37L321.91 493.43Zm-45.52 10.64 160.76 160.76c4.15-9.22 7.1-18.85 8.84-28.64L305.01 495.23a121.15 121.15 0 0 0-28.64 8.84Zm-25.88 15.85L421.3 690.7c3.2-4.01 6.12-8.17 8.75-12.46L262.97 511.16a121.08 121.08 0 0 0-12.46 8.76Zm161.77 180.85c-47.45 47.44-124.38 47.44-171.83 0-47.45-47.45-47.45-124.38 0-171.83l171.83 171.83Zm144.25-316.08a121.17 121.17 0 0 1 35.5 90.36l-62.93-62.93 27.43-27.43ZM33.61-27.9l548 548a114.14 114.14 0 0 0 3.66-33.12L51.99-46.29 33.61-27.91Zm361.15 403.57 170.78 170.78c3.2-4.01 6.12-8.17 8.75-12.46L407.22 366.9a121.13 121.13 0 0 0-12.46 8.76Z"/>
    <path fill="#fff" d="M556.52 556.52c-47.45 47.45-124.38 47.45-171.83 0-47.45-47.45-47.45-124.38 0-171.83l171.83 171.83ZM61.34-55.63l27.43-27.43 468.1 468.1-27.42 27.43zm639.43 296.07a121.17 121.17 0 0 1 35.5 90.36l-62.93-62.93 27.43-27.43Zm-522.91-412.6 548 548.01a114.14 114.14 0 0 0 3.66-33.12L196.25-190.54l-18.39 18.38ZM539 231.42 709.8 402.2c3.2-4.01 6.12-8.17 8.75-12.46L551.47 222.66a121.29 121.29 0 0 0-12.46 8.76Z"/>
    <path fill="#fff" d="M700.77 412.27c-47.45 47.44-124.38 47.44-171.83 0-47.45-47.45-47.45-124.38 0-171.83l171.83 171.83ZM205.6-199.88l27.42-27.43 468.1 468.1-27.42 27.43z"/>
  </g>
  <defs>
    <clipPath id="a">
      <rect width="823" height="823" fill="#fff" rx="411.5"/>
    </clipPath>
  </defs>
</svg>