<svg xmlns="http://www.w3.org/2000/svg" fill="none" viewBox="0 0 823 823">
  <g clip-path="url(#a)">
    <path fill="#F3F4EE" d="M0 0h823v823H0z"/>
    <path stroke="#CC113E" stroke-opacity=".33" d="M206.5 0v823m207-823v826m206-826v826M-.5 619h823M-.5 412h826M-.5 206h826"/>
    <path fill="#770024" d="M261.9 433.43a121.17 121.17 0 0 1 90.37 35.5 121.17 121.17 0 0 1 35.5 90.37L261.91 433.43Z"/>
    <path fill="#CC113E" d="m216.38 444.07 160.76 160.76c4.15-9.22 7.1-18.85 8.84-28.64L245.02 435.23a121.15 121.15 0 0 0-28.64 8.84Z"/>
    <path fill="#EA5924" d="M190.5 459.92 361.3 630.7c3.2-4.01 6.12-8.17 8.75-12.46L202.97 451.16a121.08 121.08 0 0 0-12.46 8.76Z"/>
    <path fill="#EF9701" d="M352.27 640.77c-47.45 47.44-124.38 47.44-171.83 0-47.45-47.45-47.45-124.38 0-171.83l171.83 171.83Z"/>
    <path fill="#770024" d="M496.52 324.69a121.17 121.17 0 0 1 35.5 90.36l-62.93-62.93 27.43-27.43Z"/>
    <path fill="#CC113E" d="m-26.39-87.9 548 548a114.14 114.14 0 0 0 3.66-33.12L-8.01-106.29l-18.38 18.38Z"/>
    <path fill="#EA5924" d="m334.76 315.67 170.78 170.78c3.2-4.01 6.12-8.17 8.75-12.46L347.22 306.9a120.98 120.98 0 0 0-12.46 8.76Z"/>
    <path fill="#EF9701" d="M496.52 496.52c-47.45 47.45-124.38 47.45-171.83 0-47.45-47.45-47.45-124.38 0-171.83l171.83 171.83Z"/>
    <path fill="#770024" d="m1.34-115.63 27.43-27.43 468.1 468.1-27.42 27.43zm639.43 296.07a121.17 121.17 0 0 1 35.5 90.36l-62.93-62.93 27.43-27.43Z"/>
    <path fill="#CC113E" d="m117.86-232.16 548 548.01a114.13 114.13 0 0 0 3.66-33.12L136.25-250.54l-18.39 18.38Z"/>
    <path fill="#EA5924" d="M479 171.42 649.8 342.2c3.2-4.01 6.12-8.17 8.75-12.46L491.47 162.66a121.29 121.29 0 0 0-12.46 8.76Z"/>
    <path fill="#EF9701" d="M640.77 352.27c-47.45 47.44-124.38 47.44-171.83 0-47.45-47.45-47.45-124.38 0-171.83l171.83 171.83Z"/>
    <path fill="#770024" d="m145.6-259.88 27.42-27.43 468.1 468.1-27.42 27.43z"/>
  </g>
  <defs>
    <clipPath id="a">
      <path fill="#fff" d="M0 0h823v823H0z"/>
    </clipPath>
  </defs>
</svg>