<svg xmlns="http://www.w3.org/2000/svg" fill="none" viewBox="0 0 823 823">
  <path fill="#7B2500" fill-rule="evenodd" d="M0 176C0 111 35 54 87 24l14 14h1l266 266a99 99 0 0 0-50 82c40 19 70 56 80 100a99 99 0 0 0 118-96c0-38-23-64-49-90l-54-53h1L210 44h1L167 0h187l44 44h-1l100 101 4 3 28 28a99 99 0 0 0-51 74l32 32c6 4 10 9 15 14l3 5c14 17 24 37 29 59a99 99 0 0 0 118-97c0-29-13-55-32-73l-31-31L453 0h194c97 0 176 79 176 176v471c0 97-79 176-176 176H176C79 823 0 744 0 647V176Zm559 229a143 143 0 0 1-159 126 143 143 0 1 1-125-157c3-27 13-51 29-72L83 82c-24 23-39 57-39 94v471c0 73 59 132 132 132h471c73 0 132-59 132-132V176c0-73-59-132-132-132h-89l116 115a143 143 0 0 1 42 133 143 143 0 0 1-157 113Zm-281 14a99 99 0 0 0-119 97 99 99 0 1 0 119-97Zm164-205c6-15 14-29 23-40L336 44h-63l169 170Z" clip-rule="evenodd"/>
  <path fill="#FF8A35" d="M417 532c74 0 134-55 142-127l17 1a143 143 0 0 0 98-247L558 44h89c73 0 132 59 132 132v471c0 73-59 132-132 132H176c-73 0-132-59-132-132V176c0-37 15-71 39-94l221 220c-16 21-26 45-29 72l-17-1a143 143 0 1 0 142 158l17 1Z"/>
  <path fill="#FF8A35" d="M465 174c-9 11-17 25-23 40L273 44h63l129 130Z"/>
</svg>