<?xml version="1.0" encoding="UTF-8" standalone="no"?>
<!DOCTYPE svg PUBLIC "-//W3C//DTD SVG 1.1//EN" "http://www.w3.org/Graphics/SVG/1.1/DTD/svg11.dtd">
<svg version="1.1" xmlns="http://www.w3.org/2000/svg" xmlns:xlink="http://www.w3.org/1999/xlink" preserveAspectRatio="xMidYMid meet" viewBox="0 0 640 640" width="640" height="640"><defs><path d="M569.57 47.85L569.56 47.94L569.56 48.02L569.55 48.1L569.54 48.19L569.53 48.27L569.52 48.34L569.51 48.42L569.49 48.5L569.47 48.58L569.46 48.65L569.44 48.72L569.41 48.8L569.39 48.87L569.37 48.94L569.34 49.01L569.31 49.07L569.29 49.14L569.26 49.21L569.22 49.27L569.19 49.33L569.16 49.39L569.12 49.45L569.08 49.51L569.04 49.57L569 49.62L568.96 49.68L568.92 49.73L568.87 49.78L568.82 49.83L568.78 49.88L568.73 49.93L568.68 49.98L568.62 50.02L568.57 50.07L568.52 50.11L568.46 50.15L568.4 50.19L568.34 50.22L568.29 50.26L568.24 50.3L568.18 50.34L568.12 50.39L568.06 50.44L567.99 50.49L567.93 50.55L567.86 50.62L567.79 50.68L567.71 50.75L567.64 50.83L567.56 50.9L567.49 50.99L567.41 51.07L567.33 51.16L567.25 51.25L567.16 51.34L567.08 51.44L567 51.53L566.91 51.64L566.83 51.74L566.74 51.84L566.65 51.95L566.57 52.06L566.48 52.17L566.39 52.28L566.3 52.4L566.21 52.51L566.13 52.63L566.04 52.75L565.95 52.87L565.87 52.99L565.78 53.11L565.69 53.23L565.61 53.35L565.53 53.48L565.44 53.6L565.36 53.72L565.28 53.85L565.2 53.97L563.29 56.96L562.99 91.79L562.97 93.43L562.96 95.03L562.94 96.6L562.93 98.13L562.91 99.62L562.89 101.09L562.88 102.51L562.86 103.9L562.84 105.25L562.82 106.57L562.8 107.85L562.78 109.09L562.76 110.29L562.74 111.46L562.72 112.58L562.7 113.67L562.68 114.72L562.65 115.73L562.63 116.7L562.61 117.63L562.59 118.51L562.56 119.36L562.54 120.17L562.51 120.93L562.49 121.65L562.47 122.33L562.44 122.97L562.41 123.56L562.39 124.12L562.36 124.62L562.34 125.09L562.31 125.51L562.28 125.88L562.26 126.21L562.23 126.49L562.2 126.73L562.17 126.92L562.15 127.07L562.12 127.17L562.09 127.22L562.06 127.25L562.02 127.27L561.98 127.29L561.94 127.31L561.89 127.32L561.84 127.33L561.79 127.33L561.73 127.33L561.67 127.33L561.6 127.32L561.53 127.31L561.46 127.3L561.38 127.28L561.3 127.26L561.22 127.24L561.13 127.21L561.04 127.18L560.94 127.14L560.84 127.1L560.74 127.06L560.63 127.01L560.52 126.96L560.4 126.9L560.29 126.85L560.16 126.78L560.04 126.72L559.91 126.65L559.78 126.58L559.64 126.5L559.5 126.42L559.36 126.33L559.21 126.25L559.06 126.16L558.9 126.06L558.75 125.96L558.58 125.86L558.42 125.75L558.25 125.64L558.08 125.53L557.9 125.41L557.45 125.12L556.98 124.82L556.49 124.51L555.99 124.21L555.47 123.9L554.93 123.58L554.38 123.27L553.82 122.96L553.25 122.64L552.66 122.33L552.07 122.01L551.47 121.7L550.86 121.38L550.25 121.07L549.63 120.76L549.01 120.46L548.38 120.16L547.75 119.86L547.13 119.57L546.5 119.28L545.87 118.99L545.25 118.72L544.63 118.44L544.02 118.18L543.41 117.92L542.81 117.67L542.22 117.43L541.63 117.2L541.06 116.98L540.5 116.77L539.95 116.57L539.41 116.37L538.89 116.19L538.39 116.03L537.9 115.87L537.43 115.73L536.98 115.6L536.55 115.48L536.14 115.38L535.76 115.3L535.63 115.27L535.5 115.24L535.37 115.21L535.24 115.18L535.1 115.15L534.96 115.12L534.82 115.08L534.67 115.05L534.53 115.01L534.38 114.97L534.23 114.94L534.08 114.9L533.93 114.86L533.78 114.81L533.62 114.77L533.47 114.73L533.32 114.69L533.16 114.64L533.01 114.6L532.85 114.55L532.7 114.51L532.54 114.46L532.39 114.42L532.24 114.37L532.09 114.33L531.94 114.28L531.79 114.23L531.64 114.19L531.5 114.14L531.35 114.09L531.21 114.05L531.07 114L530.94 113.96L530.8 113.91L530.67 113.87L530.54 113.82L530.42 113.78L530.3 113.73L530.18 113.69L530.07 113.65L529.74 113.54L529.33 113.44L528.86 113.34L528.32 113.25L527.72 113.16L527.06 113.08L526.34 113L525.58 112.93L524.77 112.87L523.91 112.81L523.02 112.75L522.1 112.71L521.14 112.66L520.16 112.63L519.16 112.6L518.13 112.57L517.09 112.55L516.05 112.54L514.99 112.53L513.93 112.52L512.88 112.53L511.82 112.53L510.78 112.55L509.75 112.56L508.74 112.59L507.75 112.62L506.78 112.65L505.84 112.69L504.94 112.74L504.07 112.79L503.24 112.85L502.45 112.91L501.72 112.98L501.04 113.06L500.41 113.14L499.84 113.22L499.34 113.32L498.91 113.41L498.54 113.51L498.26 113.62L498.16 113.66L498.07 113.71L497.96 113.75L497.86 113.79L497.75 113.84L497.63 113.88L497.51 113.93L497.39 113.97L497.26 114.02L497.13 114.06L497 114.11L496.86 114.16L496.72 114.2L496.58 114.25L496.44 114.3L496.29 114.34L496.14 114.39L495.99 114.44L495.84 114.48L495.68 114.53L495.53 114.58L495.37 114.62L495.22 114.67L495.06 114.71L494.9 114.76L494.74 114.8L494.58 114.85L494.42 114.89L494.26 114.93L494.1 114.97L493.94 115.01L493.79 115.05L493.63 115.09L493.47 115.13L493.32 115.17L493.17 115.2L493.01 115.24L492.86 115.27L492.72 115.3L492.57 115.33L492.43 115.36L492.28 115.39L492.13 115.43L491.98 115.46L491.82 115.5L491.67 115.54L491.51 115.58L491.36 115.62L491.2 115.66L491.04 115.7L490.88 115.74L490.72 115.79L490.56 115.83L490.4 115.88L490.24 115.93L490.08 115.97L489.92 116.02L489.76 116.07L489.6 116.12L489.45 116.17L489.29 116.22L489.14 116.27L488.99 116.32L488.84 116.38L488.69 116.43L488.55 116.48L488.4 116.53L488.26 116.58L488.13 116.63L487.99 116.69L487.86 116.74L487.73 116.79L487.61 116.84L487.49 116.89L487.37 116.94L487.26 116.99L487.15 117.04L487.05 117.09L486.95 117.13L486.85 117.18L486.76 117.23L486.67 117.27L486.58 117.32L486.48 117.36L486.39 117.41L486.3 117.45L486.21 117.49L486.12 117.54L486.02 117.58L485.93 117.62L485.84 117.66L485.75 117.7L485.66 117.74L485.58 117.77L485.49 117.81L485.4 117.85L485.32 117.88L485.23 117.91L485.15 117.95L485.07 117.98L484.99 118.01L484.91 118.04L484.84 118.06L484.76 118.09L484.69 118.11L484.62 118.14L484.55 118.16L484.48 118.18L484.42 118.2L484.36 118.22L484.3 118.24L484.24 118.25L484.19 118.26L484.14 118.27L484.09 118.28L484.05 118.29L484.01 118.3L483.97 118.3L483.93 118.31L483.9 118.31L483.45 118.34L482.94 118.43L482.38 118.57L481.77 118.77L481.11 119.03L480.41 119.33L479.67 119.68L478.88 120.08L478.06 120.52L477.21 121L476.33 121.53L475.42 122.09L474.48 122.68L473.53 123.31L472.55 123.97L471.56 124.66L470.55 125.37L469.54 126.11L468.51 126.87L467.48 127.65L466.45 128.45L465.42 129.26L464.39 130.09L463.37 130.93L462.36 131.77L461.36 132.63L460.38 133.49L459.41 134.35L458.46 135.21L457.54 136.08L456.64 136.93L455.77 137.78L454.94 138.63L454.14 139.46L453.37 140.28L452.65 141.09L451.97 141.88L451.33 142.65L450.74 143.39L450.21 144.12L449.17 145.59L448.18 147.02L447.23 148.42L446.32 149.8L445.46 151.15L444.64 152.49L443.86 153.82L443.12 155.14L442.42 156.47L441.76 157.8L441.13 159.13L440.54 160.49L439.98 161.86L439.46 163.27L438.97 164.7L438.51 166.17L438.08 167.68L437.68 169.24L437.31 170.85L436.97 172.52L436.66 174.25L436.36 176.05L436.1 177.93L435.86 179.88L435.64 181.92L435.44 184.05L435.26 186.27L435.1 188.59L434.96 191.01L434.84 193.55L434.73 196.2L434.64 198.98L434.56 201.87L434.5 204.91L434.44 208.07L434.4 211.38L434.37 214.84L434.35 218.45L434.34 222.21L434.33 226.14L434.33 228.91L434.33 231.53L434.33 234.01L434.33 236.34L434.33 238.55L434.32 240.62L434.32 242.57L434.31 244.39L434.29 246.09L434.27 247.67L434.25 249.14L434.22 250.5L434.18 251.75L434.14 252.9L434.08 253.95L434.02 254.9L433.95 255.76L433.87 256.54L433.77 257.22L433.67 257.83L433.55 258.36L433.42 258.81L433.27 259.19L433.12 259.51L432.94 259.76L432.75 259.95L432.54 260.09L432.32 260.17L432.08 260.2L431.82 260.19L431.53 260.13L431.23 260.03L430.91 259.9L430.57 259.74L430.2 259.55L429.82 259.33L429.4 259.1L428.97 258.84L428.51 258.58L428.02 258.3L427.88 258.22L427.75 258.14L427.62 258.07L427.48 257.99L427.35 257.92L427.22 257.84L427.09 257.76L426.97 257.69L426.84 257.61L426.72 257.54L426.6 257.47L426.48 257.39L426.36 257.32L426.25 257.25L426.13 257.18L426.02 257.11L425.92 257.04L425.81 256.97L425.71 256.91L425.61 256.84L425.51 256.78L425.42 256.72L425.33 256.66L425.25 256.6L425.16 256.54L425.08 256.49L425.01 256.43L424.94 256.38L424.87 256.33L424.81 256.29L424.75 256.24L424.69 256.2L424.64 256.16L424.6 256.12L424.56 256.09L424.52 256.05L424.49 256.02L424.46 255.99L424.44 255.97L424.43 255.95L424.41 255.93L424.39 255.9L424.37 255.88L424.35 255.86L424.32 255.83L424.29 255.81L424.25 255.78L424.22 255.75L424.18 255.73L424.13 255.7L424.09 255.67L424.04 255.64L423.98 255.61L423.93 255.58L423.87 255.54L423.81 255.51L423.75 255.48L423.69 255.45L423.62 255.41L423.55 255.38L423.48 255.35L423.41 255.31L423.34 255.28L423.26 255.25L423.18 255.21L423.11 255.18L423.03 255.14L422.94 255.11L422.86 255.08L422.78 255.04L422.69 255.01L422.6 254.98L422.52 254.94L422.43 254.91L422.34 254.88L422.25 254.84L422.16 254.81L422.07 254.78L421.98 254.75L421.88 254.72L421.79 254.69L421.7 254.66L421.6 254.62L421.5 254.59L421.41 254.55L421.31 254.51L421.21 254.47L421.11 254.43L421 254.39L420.9 254.35L420.8 254.31L420.7 254.26L420.6 254.22L420.49 254.17L420.39 254.12L420.29 254.08L420.19 254.03L420.09 253.98L419.99 253.93L419.89 253.88L419.79 253.83L419.69 253.78L419.59 253.73L419.5 253.68L419.4 253.63L419.31 253.57L419.22 253.52L419.13 253.47L419.04 253.42L418.95 253.37L418.87 253.32L418.79 253.27L418.71 253.22L418.63 253.17L418.55 253.12L418.48 253.07L418.41 253.02L418.35 252.97L418.28 252.93L418.22 252.88L418.16 252.84L418.1 252.79L418.04 252.75L417.98 252.7L417.91 252.66L417.85 252.62L417.78 252.57L417.71 252.53L417.64 252.49L417.58 252.45L417.51 252.41L417.44 252.37L417.37 252.33L417.3 252.3L417.23 252.26L417.16 252.23L417.09 252.19L417.02 252.16L416.95 252.13L416.88 252.1L416.81 252.07L416.74 252.04L416.67 252.01L416.6 251.99L416.53 251.96L416.47 251.94L416.4 251.92L416.33 251.9L416.27 251.88L416.21 251.86L416.14 251.84L416.08 251.83L416.02 251.82L415.97 251.8L415.91 251.79L415.85 251.79L415.8 251.78L415.75 251.77L415.7 251.77L415.65 251.77L415.6 251.77L415.55 251.77L415.49 251.76L415.43 251.75L415.36 251.74L415.29 251.73L415.22 251.71L415.15 251.69L415.07 251.67L414.98 251.65L414.9 251.63L414.81 251.6L414.72 251.58L414.63 251.55L414.53 251.51L414.43 251.48L414.33 251.45L414.23 251.41L414.12 251.37L414.02 251.33L413.91 251.29L413.8 251.25L413.69 251.2L413.57 251.16L413.46 251.11L413.35 251.06L413.23 251.01L413.11 250.96L413 250.91L412.88 250.86L412.76 250.8L412.64 250.75L412.52 250.69L412.4 250.63L412.28 250.58L412.17 250.52L412.05 250.46L411.93 250.4L411.81 250.34L411.7 250.28L411.58 250.21L411.46 250.15L411.34 250.09L411.22 250.03L411.1 249.97L410.98 249.92L410.85 249.86L410.73 249.8L410.6 249.75L410.48 249.69L410.35 249.64L410.23 249.59L410.1 249.54L409.97 249.49L409.85 249.44L409.72 249.39L409.6 249.35L409.48 249.3L409.35 249.26L409.23 249.22L409.11 249.18L408.99 249.14L408.88 249.1L408.76 249.07L408.65 249.04L408.54 249L408.43 248.97L408.32 248.95L408.21 248.92L408.11 248.9L408.01 248.88L407.91 248.86L407.82 248.84L407.73 248.82L407.64 248.81L407.56 248.8L407.48 248.79L407.4 248.78L407.33 248.78L407.26 248.78L407.19 248.78L407.11 248.77L407.03 248.77L406.95 248.76L406.86 248.75L406.77 248.74L406.68 248.73L406.58 248.71L406.48 248.7L406.37 248.68L406.27 248.66L406.16 248.63L406.04 248.61L405.92 248.58L405.81 248.56L405.68 248.53L405.56 248.5L405.43 248.47L405.31 248.43L405.18 248.4L405.05 248.36L404.91 248.32L404.78 248.29L404.64 248.25L404.51 248.2L404.37 248.16L404.24 248.12L404.1 248.08L403.96 248.03L403.82 247.98L403.68 247.94L403.54 247.89L403.41 247.84L403.27 247.79L403.13 247.74L403 247.69L402.86 247.64L402.73 247.59L402.6 247.53L402.46 247.48L402.25 247.39L402.03 247.31L401.83 247.23L401.62 247.15L401.42 247.08L401.21 247.01L401.01 246.94L400.8 246.88L400.59 246.82L400.37 246.77L400.15 246.72L399.92 246.67L399.68 246.62L399.43 246.58L399.17 246.54L398.89 246.5L398.6 246.47L398.3 246.44L397.98 246.41L397.65 246.38L397.29 246.35L396.91 246.33L396.52 246.31L396.1 246.29L395.65 246.27L395.18 246.26L394.69 246.25L394.16 246.23L393.61 246.22L393.02 246.21L392.41 246.21L391.76 246.2L391.08 246.2L390.36 246.19L389.61 246.19L388.81 246.19L387.98 246.18L387.11 246.18L386.19 246.18L385.24 246.18L384.28 246.18L383.36 246.18L382.49 246.18L381.66 246.19L380.87 246.19L380.11 246.19L379.39 246.2L378.71 246.2L378.06 246.21L377.45 246.21L376.86 246.22L376.31 246.23L375.78 246.25L375.29 246.26L374.82 246.27L374.37 246.29L373.95 246.31L373.56 246.33L373.18 246.35L372.82 246.38L372.49 246.41L372.17 246.44L371.87 246.47L371.58 246.5L371.3 246.54L371.04 246.58L370.79 246.62L370.55 246.67L370.32 246.72L370.1 246.77L369.88 246.82L369.67 246.88L369.46 246.94L369.26 247.01L369.05 247.08L368.85 247.15L368.64 247.23L368.44 247.31L368.22 247.39L368.01 247.48L367.87 247.53L367.74 247.59L367.61 247.64L367.47 247.69L367.34 247.74L367.2 247.79L367.06 247.84L366.92 247.89L366.78 247.94L366.64 247.98L366.51 248.03L366.37 248.08L366.23 248.12L366.09 248.16L365.95 248.2L365.81 248.25L365.68 248.29L365.54 248.32L365.41 248.36L365.28 248.4L365.15 248.43L365.02 248.47L364.89 248.5L364.76 248.53L364.64 248.56L364.52 248.58L364.4 248.61L364.29 248.63L364.17 248.66L364.06 248.68L363.95 248.7L363.85 248.71L363.75 248.73L363.65 248.74L363.56 248.75L363.47 248.76L363.39 248.77L363.31 248.77L363.23 248.78L363.16 248.78L363.09 248.78L363.01 248.78L362.93 248.79L362.85 248.8L362.76 248.81L362.67 248.82L362.58 248.84L362.48 248.86L362.38 248.88L362.28 248.9L362.18 248.92L362.07 248.95L361.96 248.97L361.85 249L361.74 249.04L361.62 249.07L361.5 249.1L361.38 249.14L361.26 249.18L361.14 249.22L361.02 249.26L360.9 249.3L360.77 249.35L360.65 249.39L360.52 249.44L360.39 249.49L360.27 249.54L360.14 249.59L360.01 249.64L359.89 249.69L359.76 249.75L359.63 249.8L359.51 249.86L359.38 249.92L359.26 249.97L359.14 250.03L359.02 250.09L358.9 250.15L358.78 250.21L358.66 250.28L358.54 250.34L358.43 250.4L358.31 250.46L358.19 250.52L358.08 250.58L357.96 250.63L357.85 250.69L357.73 250.75L357.62 250.8L357.5 250.86L357.39 250.91L357.28 250.96L357.17 251.01L357.06 251.06L356.95 251.11L356.84 251.16L356.74 251.2L356.63 251.25L356.53 251.29L356.43 251.33L356.33 251.37L356.24 251.41L356.15 251.45L356.06 251.48L355.97 251.51L355.88 251.55L355.8 251.58L355.72 251.6L355.64 251.63L355.57 251.65L355.5 251.67L355.43 251.69L355.37 251.71L355.31 251.73L355.25 251.74L355.2 251.75L355.15 251.76L355.11 251.77L355.07 251.77L355.03 251.77L354.94 251.78L354.83 251.8L354.69 251.83L354.54 251.88L354.37 251.93L354.18 252L353.97 252.09L353.75 252.18L353.51 252.28L353.26 252.39L352.99 252.52L352.7 252.65L352.4 252.79L352.09 252.94L351.77 253.1L351.44 253.27L351.09 253.45L350.74 253.63L350.38 253.82L350 254.02L349.63 254.22L349.24 254.43L348.85 254.64L348.45 254.86L348.04 255.09L347.63 255.32L347.22 255.55L346.81 255.79L346.39 256.03L345.97 256.27L345.55 256.52L345.13 256.77L344.71 257.02L344.29 257.27L343.88 257.52L343.46 257.77L343.05 258.03L342.64 258.28L342.24 258.54L341.84 258.79L341.33 259.12L340.82 259.46L340.31 259.81L339.79 260.16L339.27 260.53L338.76 260.9L338.24 261.27L337.72 261.66L337.2 262.05L336.68 262.44L336.17 262.84L335.65 263.25L335.14 263.66L334.63 264.08L334.12 264.5L333.61 264.93L333.11 265.35L332.61 265.79L332.11 266.22L331.62 266.66L331.13 267.1L330.65 267.55L330.17 267.99L329.7 268.44L329.23 268.89L328.77 269.34L328.32 269.79L327.87 270.24L327.43 270.69L327 271.14L326.57 271.59L326.16 272.04L325.75 272.49L325.35 272.94L324.96 273.38L324.58 273.83L324.2 274.27L323.84 274.71L323.49 275.14L323 275.77L322.85 275.96L322.7 276.13L322.56 276.29L322.41 276.44L322.27 276.57L322.14 276.69L322 276.8L321.86 276.89L321.71 276.96L321.57 277.02L321.42 277.07L321.27 277.1L321.11 277.11L320.95 277.1L320.78 277.07L320.6 277.03L320.41 276.97L320.22 276.89L320.01 276.79L319.8 276.67L319.57 276.53L319.33 276.37L319.08 276.19L318.81 275.98L318.53 275.76L318.23 275.51L317.92 275.24L317.59 274.94L317.24 274.63L316.87 274.28L316.49 273.92L316.08 273.53L315.65 273.11L315.2 272.67L314.73 272.2L314.23 271.7L313.71 271.18L313.16 270.63L312.59 270.05L311.99 269.46L311.37 268.85L310.72 268.24L310.05 267.63L309.36 267.01L308.65 266.38L307.92 265.76L307.18 265.13L306.43 264.5L305.66 263.88L304.88 263.26L304.09 262.64L303.3 262.03L302.5 261.42L301.7 260.82L300.9 260.23L300.1 259.65L299.3 259.08L298.5 258.53L297.71 257.98L296.93 257.45L296.15 256.94L295.39 256.44L294.64 255.97L293.9 255.51L293.18 255.07L292.48 254.65L291.79 254.26L291.13 253.89L290.49 253.54L289.88 253.23L289.29 252.94L288.73 252.67L288.2 252.44L287.7 252.24L287.23 252.08L286.8 251.94L286.41 251.84L286.06 251.78L285.74 251.75L285.71 251.75L285.67 251.75L285.63 251.74L285.58 251.73L285.53 251.72L285.47 251.7L285.41 251.69L285.35 251.67L285.28 251.65L285.21 251.63L285.14 251.6L285.06 251.58L284.98 251.55L284.9 251.52L284.81 251.49L284.72 251.46L284.63 251.42L284.53 251.38L284.43 251.35L284.33 251.31L284.23 251.27L284.12 251.22L284.02 251.18L283.91 251.13L283.8 251.09L283.68 251.04L283.57 250.99L283.45 250.94L283.34 250.89L283.22 250.83L283.1 250.78L282.98 250.73L282.86 250.67L282.73 250.61L282.61 250.56L282.49 250.5L282.37 250.44L282.24 250.38L282.12 250.32L282 250.26L281.87 250.2L281.75 250.14L281.62 250.08L281.49 250.02L281.37 249.97L281.24 249.91L281.11 249.85L280.98 249.8L280.86 249.74L280.73 249.69L280.6 249.64L280.47 249.59L280.35 249.54L280.22 249.49L280.1 249.44L279.97 249.39L279.85 249.35L279.73 249.3L279.61 249.26L279.49 249.22L279.37 249.18L279.26 249.14L279.14 249.11L279.03 249.07L278.92 249.04L278.82 249.01L278.71 248.98L278.61 248.95L278.51 248.93L278.42 248.9L278.33 248.88L278.24 248.86L278.15 248.84L278.07 248.83L277.99 248.82L277.92 248.81L277.85 248.8L277.78 248.79L277.72 248.79L277.66 248.78L277.6 248.78L277.54 248.78L277.47 248.77L277.39 248.77L277.31 248.76L277.23 248.74L277.14 248.73L277.04 248.72L276.94 248.7L276.84 248.68L276.73 248.66L276.62 248.63L276.51 248.61L276.39 248.58L276.27 248.55L276.14 248.53L276.01 248.49L275.88 248.46L275.75 248.43L275.61 248.39L275.47 248.36L275.33 248.32L275.18 248.28L275.04 248.24L274.89 248.19L274.74 248.15L274.59 248.11L274.44 248.06L274.29 248.02L274.13 247.97L273.98 247.92L273.82 247.87L273.66 247.82L273.51 247.77L273.35 247.72L273.19 247.67L273.04 247.62L272.88 247.56L272.73 247.51L272.57 247.45L272.12 247.31L271.61 247.17L271.04 247.05L270.41 246.92L269.73 246.81L269 246.7L268.22 246.61L267.4 246.51L266.54 246.43L265.65 246.35L264.72 246.28L263.76 246.22L262.77 246.17L261.77 246.12L260.74 246.08L259.69 246.05L258.64 246.02L257.57 246.01L256.5 246L255.42 245.99L254.34 246L253.27 246.01L252.21 246.03L251.15 246.06L250.11 246.09L249.08 246.13L248.08 246.18L247.1 246.24L246.14 246.3L245.22 246.38L244.33 246.45L243.47 246.54L242.66 246.63L241.89 246.73L241.16 246.84L240.49 246.96L239.87 247.08L239.31 247.21L238.8 247.35L238.36 247.49L238.22 247.54L238.07 247.6L237.92 247.65L237.77 247.7L237.63 247.75L237.48 247.8L237.33 247.85L237.18 247.9L237.04 247.95L236.89 247.99L236.74 248.04L236.6 248.08L236.46 248.13L236.31 248.17L236.17 248.21L236.03 248.25L235.9 248.29L235.76 248.33L235.63 248.37L235.5 248.4L235.37 248.44L235.24 248.47L235.12 248.5L235 248.53L234.88 248.56L234.76 248.59L234.65 248.61L234.54 248.64L234.44 248.66L234.34 248.68L234.24 248.7L234.15 248.72L234.06 248.73L233.98 248.75L233.9 248.76L233.82 248.77L233.75 248.77L233.69 248.78L233.63 248.78L233.57 248.78L233.52 248.79L233.46 248.79L233.4 248.8L233.33 248.81L233.26 248.82L233.19 248.83L233.11 248.84L233.03 248.86L232.94 248.88L232.85 248.9L232.76 248.93L232.66 248.95L232.57 248.98L232.47 249.01L232.36 249.04L232.26 249.07L232.15 249.11L232.04 249.14L231.92 249.18L231.81 249.22L231.69 249.26L231.58 249.3L231.46 249.35L231.34 249.39L231.21 249.44L231.09 249.49L230.97 249.54L230.84 249.59L230.72 249.64L230.59 249.69L230.46 249.74L230.34 249.8L230.21 249.85L230.08 249.91L229.96 249.97L229.83 250.02L229.7 250.08L229.58 250.14L229.45 250.2L229.33 250.26L229.2 250.32L229.08 250.38L228.96 250.44L228.83 250.5L228.71 250.56L228.59 250.61L228.47 250.67L228.35 250.73L228.23 250.78L228.11 250.83L227.99 250.89L227.87 250.94L227.76 250.99L227.64 251.04L227.53 251.09L227.42 251.13L227.31 251.18L227.2 251.22L227.1 251.27L227 251.31L226.9 251.35L226.8 251.38L226.7 251.42L226.61 251.46L226.52 251.49L226.43 251.52L226.35 251.55L226.27 251.58L226.19 251.6L226.12 251.63L226.05 251.65L225.98 251.67L225.92 251.69L225.86 251.7L225.8 251.72L225.75 251.73L225.71 251.74L225.66 251.75L225.63 251.75L225.59 251.75L225.53 251.76L225.45 251.78L225.35 251.81L225.23 251.85L225.1 251.9L224.94 251.96L224.77 252.03L224.58 252.11L224.38 252.19L224.16 252.29L223.93 252.39L223.69 252.51L223.43 252.63L223.16 252.75L222.88 252.88L222.6 253.02L222.3 253.17L221.99 253.32L221.68 253.47L221.36 253.63L221.03 253.79L220.7 253.96L220.37 254.13L220.03 254.3L219.68 254.48L219.34 254.66L218.99 254.84L218.64 255.02L218.3 255.21L217.95 255.39L217.6 255.58L217.26 255.76L216.92 255.95L216.58 256.13L216.25 256.31L215.92 256.49L215.6 256.67L215.29 256.85L214.98 257.03L214.68 257.2L213.89 257.67L213.07 258.19L212.22 258.75L211.36 259.35L210.48 259.99L209.59 260.66L208.68 261.36L207.76 262.09L206.83 262.84L205.89 263.62L204.95 264.43L204.01 265.25L203.07 266.09L202.13 266.94L201.2 267.81L200.28 268.69L199.36 269.57L198.46 270.46L197.57 271.35L196.7 272.24L195.85 273.13L195.03 274.01L194.22 274.89L193.44 275.75L192.7 276.61L191.98 277.45L191.3 278.27L190.65 279.07L190.04 279.85L189.47 280.61L188.94 281.34L188.46 282.04L188.03 282.71L187.65 283.35L187.32 283.95L187.04 284.51L186.83 285.03L186.67 285.5L186.57 285.93L186.54 286.31L186.54 286.34L186.53 286.37L186.53 286.39L186.52 286.42L186.52 286.45L186.51 286.48L186.5 286.51L186.49 286.55L186.48 286.58L186.47 286.61L186.45 286.65L186.44 286.68L186.42 286.71L186.41 286.75L186.39 286.78L186.37 286.82L186.35 286.86L186.33 286.89L186.3 286.93L186.28 286.96L186.26 287L186.23 287.04L186.21 287.07L186.18 287.11L186.15 287.15L186.12 287.18L186.1 287.22L186.07 287.26L186.04 287.29L186.01 287.33L185.97 287.36L185.94 287.4L185.91 287.43L185.88 287.46L185.84 287.5L185.81 287.53L185.77 287.56L185.74 287.59L185.7 287.63L185.67 287.66L185.63 287.69L185.6 287.72L185.56 287.76L185.52 287.8L185.48 287.84L185.44 287.89L185.4 287.94L185.36 287.99L185.32 288.05L185.28 288.11L185.23 288.17L185.19 288.23L185.15 288.3L185.11 288.36L185.06 288.43L185.02 288.51L184.98 288.58L184.94 288.65L184.89 288.73L184.85 288.81L184.81 288.89L184.76 288.97L184.72 289.05L184.68 289.14L184.64 289.22L184.6 289.31L184.56 289.4L184.52 289.48L184.48 289.57L184.44 289.66L184.4 289.75L184.36 289.84L184.33 289.93L184.29 290.02L184.26 290.12L184.22 290.21L184.19 290.3L184.16 290.39L184.13 290.48L184.1 290.57L184.07 290.66L184.04 290.75L184.01 290.85L183.97 290.94L183.94 291.03L183.91 291.12L183.87 291.22L183.84 291.31L183.8 291.4L183.76 291.49L183.73 291.59L183.69 291.68L183.65 291.77L183.61 291.86L183.57 291.95L183.54 292.04L183.5 292.13L183.46 292.22L183.42 292.3L183.38 292.39L183.34 292.47L183.3 292.55L183.26 292.63L183.22 292.71L183.18 292.79L183.14 292.86L183.1 292.94L183.06 293.01L183.02 293.08L182.99 293.14L182.95 293.21L182.91 293.27L182.87 293.33L182.84 293.39L182.8 293.44L182.77 293.49L182.73 293.54L182.7 293.58L182.67 293.63L182.64 293.67L182.13 294.33L181.65 295.09L181.18 295.95L180.74 296.9L180.31 297.94L179.9 299.07L179.52 300.27L179.15 301.54L178.8 302.88L178.47 304.29L178.17 305.75L177.88 307.26L177.62 308.82L177.38 310.42L177.16 312.05L176.96 313.72L176.79 315.42L176.64 317.13L176.51 318.87L176.41 320.61L176.32 322.36L176.27 324.11L176.23 325.85L176.22 327.59L176.24 329.31L176.28 331.01L176.35 332.69L176.44 334.33L176.56 335.94L176.7 337.51L176.87 339.04L177.07 340.52L177.29 341.93L177.54 343.29L177.82 344.59L178.13 345.81L178.46 346.96L178.82 348.02L179.21 349L179.63 349.89L179.67 349.96L179.71 350.03L179.75 350.11L179.78 350.18L179.82 350.26L179.85 350.34L179.89 350.41L179.92 350.49L179.96 350.57L179.99 350.64L180.02 350.72L180.05 350.8L180.09 350.87L180.12 350.95L180.15 351.02L180.17 351.1L180.2 351.17L180.23 351.25L180.26 351.32L180.28 351.39L180.31 351.46L180.33 351.53L180.35 351.6L180.37 351.67L180.39 351.73L180.41 351.8L180.43 351.86L180.45 351.92L180.46 351.98L180.48 352.04L180.49 352.1L180.5 352.15L180.52 352.21L180.52 352.26L180.53 352.31L180.54 352.35L180.54 352.4L180.55 352.44L180.55 352.48L180.55 352.51L180.56 352.61L180.6 352.76L180.66 352.94L180.74 353.16L180.84 353.42L180.95 353.71L181.09 354.03L181.24 354.39L181.41 354.77L181.6 355.17L181.79 355.6L182 356.05L182.23 356.52L182.46 357.01L182.7 357.51L182.95 358.03L183.21 358.56L183.47 359.09L183.74 359.63L184.02 360.18L184.29 360.72L184.57 361.27L184.85 361.82L185.13 362.36L185.4 362.89L185.68 363.42L185.95 363.93L186.22 364.43L186.48 364.92L186.74 365.39L186.98 365.84L187.22 366.27L187.45 366.68L187.67 367.06L187.87 367.41L188.07 367.73L188.24 368.02L188.41 368.28L188.55 368.5L188.68 368.68L188.73 368.75L188.78 368.82L188.83 368.89L188.89 368.96L188.94 369.04L189 369.12L189.06 369.2L189.12 369.28L189.18 369.37L189.25 369.45L189.31 369.54L189.38 369.64L189.44 369.73L189.51 369.82L189.58 369.92L189.65 370.02L189.72 370.12L189.79 370.22L189.86 370.32L189.93 370.42L190 370.52L190.08 370.62L190.15 370.73L190.22 370.83L190.29 370.93L190.37 371.04L190.44 371.14L190.51 371.24L190.58 371.35L190.65 371.45L190.72 371.55L190.79 371.65L190.86 371.75L190.93 371.85L191 371.95L191.07 372.05L191.13 372.15L191.2 372.24L191.26 372.34L191.32 372.43L191.45 372.6L191.61 372.81L191.81 373.05L192.05 373.34L192.33 373.66L192.64 374.01L192.98 374.39L193.35 374.8L193.75 375.24L194.17 375.7L194.62 376.18L195.09 376.69L195.57 377.2L196.08 377.74L196.6 378.28L197.13 378.84L197.67 379.41L198.21 379.98L198.77 380.56L199.33 381.13L199.89 381.71L200.45 382.29L201.01 382.86L201.56 383.42L202.11 383.98L202.64 384.52L203.17 385.05L203.69 385.57L204.19 386.06L204.67 386.54L205.13 387L205.57 387.43L205.99 387.83L206.38 388.21L206.75 388.55L207.08 388.86L207.39 389.14L207.65 389.38L207.89 389.58L208.08 389.74L210.44 391.5L212.86 393.16L215.34 394.7L217.86 396.14L220.44 397.47L223.05 398.69L225.72 399.81L228.41 400.82L231.15 401.72L233.91 402.51L236.71 403.2L239.53 403.78L242.37 404.26L245.23 404.63L248.1 404.89L250.99 405.05L253.88 405.11L256.78 405.07L259.67 404.92L262.57 404.67L265.46 404.31L268.35 403.85L271.22 403.3L274.07 402.64L276.91 401.87L279.72 401.01L282.51 400.05L285.27 398.98L288 397.82L290.69 396.56L293.34 395.2L295.96 393.74L298.52 392.18L301.04 390.52L303.5 388.77L305.91 386.91L308.26 384.97L310.54 382.92L312.76 380.78L314.91 378.54L315.29 378.13L315.66 377.74L316.01 377.37L316.34 377.02L316.66 376.69L316.97 376.37L317.27 376.08L317.55 375.8L317.83 375.54L318.09 375.3L318.34 375.07L318.58 374.86L318.81 374.67L319.03 374.49L319.24 374.34L319.45 374.19L319.65 374.07L319.84 373.96L320.02 373.86L320.2 373.79L320.37 373.72L320.53 373.68L320.69 373.64L320.85 373.62L321 373.62L321.15 373.63L321.29 373.66L321.44 373.7L321.58 373.75L321.72 373.82L321.86 373.9L321.99 373.99L322.13 374.1L322.27 374.22L322.41 374.35L322.55 374.5L322.69 374.65L322.84 374.82L322.99 375L323.14 375.2L323.44 375.59L323.78 376L324.14 376.43L324.52 376.88L324.93 377.35L325.36 377.83L325.81 378.32L326.27 378.82L326.75 379.33L327.25 379.85L327.75 380.38L328.27 380.91L328.8 381.44L329.33 381.97L329.87 382.51L330.41 383.04L330.95 383.57L331.5 384.09L332.04 384.61L332.59 385.12L333.12 385.62L333.65 386.11L334.18 386.59L334.69 387.05L335.19 387.49L335.68 387.92L336.16 388.33L336.62 388.72L337.06 389.09L337.48 389.43L337.88 389.75L338.26 390.04L338.61 390.31L338.94 390.54L339.23 390.74L339.5 390.91L339.74 391.04L339.95 391.14L340.11 391.2L340.25 391.22L340.27 391.22L340.3 391.22L340.32 391.23L340.35 391.23L340.37 391.24L340.4 391.25L340.43 391.25L340.46 391.26L340.49 391.28L340.52 391.29L340.55 391.3L340.58 391.32L340.62 391.34L340.65 391.35L340.68 391.37L340.72 391.39L340.75 391.41L340.78 391.43L340.82 391.46L340.85 391.48L340.89 391.5L340.92 391.53L340.96 391.56L341 391.58L341.03 391.61L341.07 391.64L341.1 391.67L341.14 391.7L341.17 391.73L341.21 391.76L341.24 391.79L341.28 391.83L341.31 391.86L341.34 391.89L341.38 391.93L341.41 391.96L341.44 392L341.47 392.03L341.5 392.07L341.54 392.11L341.64 392.22L341.78 392.35L341.95 392.5L342.15 392.65L342.37 392.81L342.62 392.98L342.89 393.16L343.18 393.35L343.5 393.55L343.84 393.75L344.2 393.97L344.58 394.18L344.98 394.41L345.4 394.64L345.83 394.87L346.28 395.11L346.74 395.35L347.22 395.6L347.7 395.85L348.2 396.1L348.71 396.35L349.23 396.6L349.75 396.86L350.28 397.11L350.82 397.37L351.37 397.62L351.91 397.87L352.46 398.12L353.01 398.37L353.57 398.61L354.12 398.85L354.67 399.09L355.22 399.32L355.76 399.55L356.3 399.77L356.84 399.99L357.37 400.2L357.89 400.4L358.4 400.59L358.9 400.78L360.04 401.18L361.21 401.56L362.4 401.92L363.62 402.26L364.86 402.58L366.13 402.88L367.41 403.16L368.71 403.42L370.03 403.66L371.37 403.87L372.72 404.07L374.08 404.24L375.46 404.4L376.84 404.53L378.24 404.64L379.64 404.74L381.04 404.81L382.45 404.86L383.87 404.89L385.28 404.9L386.7 404.89L388.11 404.86L389.52 404.81L390.92 404.73L392.32 404.64L393.71 404.53L395.1 404.39L396.47 404.24L397.83 404.06L399.17 403.86L400.5 403.65L401.82 403.41L403.12 403.15L404.39 402.87L405.65 402.57L406.88 402.25L408.09 401.91L409.28 401.55L410.44 401.17L411.57 400.76L412.1 400.57L412.63 400.36L413.17 400.15L413.72 399.93L414.27 399.71L414.82 399.49L415.38 399.25L415.94 399.02L416.49 398.78L417.05 398.54L417.61 398.29L418.16 398.05L418.71 397.8L419.25 397.55L419.79 397.3L420.33 397.05L420.85 396.8L421.37 396.55L421.88 396.3L422.38 396.06L422.87 395.81L423.35 395.57L423.81 395.33L424.27 395.1L424.7 394.86L425.12 394.64L425.53 394.41L425.92 394.2L426.29 393.98L426.64 393.78L426.97 393.58L427.28 393.39L427.56 393.2L427.83 393.03L428.07 392.86L428.29 392.7L428.48 392.55L428.64 392.41L428.78 392.29L428.88 392.17L428.92 392.13L428.95 392.09L428.98 392.05L429.02 392.01L429.05 391.98L429.09 391.94L429.13 391.9L429.16 391.87L429.2 391.83L429.24 391.8L429.27 391.77L429.31 391.73L429.35 391.7L429.38 391.67L429.42 391.64L429.46 391.61L429.5 391.58L429.54 391.55L429.57 391.52L429.61 391.5L429.65 391.47L429.68 391.45L429.72 391.43L429.76 391.4L429.79 391.38L429.83 391.36L429.86 391.34L429.9 391.33L429.93 391.31L429.96 391.29L429.99 391.28L430.03 391.27L430.06 391.26L430.09 391.25L430.12 391.24L430.15 391.23L430.17 391.23L430.2 391.22L430.22 391.22L430.25 391.22L430.3 391.21L430.37 391.19L430.46 391.15L430.56 391.1L430.67 391.04L430.8 390.96L430.94 390.87L431.1 390.77L431.26 390.66L431.44 390.53L431.64 390.4L431.84 390.25L432.05 390.09L432.27 389.93L432.5 389.75L432.75 389.56L433 389.37L433.25 389.17L433.52 388.96L433.79 388.74L434.07 388.52L434.35 388.29L434.64 388.05L434.94 387.81L435.24 387.56L435.54 387.31L435.85 387.05L436.16 386.79L436.47 386.52L436.78 386.25L437.1 385.98L437.41 385.71L437.73 385.43L438.05 385.15L438.36 384.87L438.68 384.59L438.99 384.31L439.3 384.03L439.61 383.75L439.91 383.47L440.14 383.26L440.38 383.03L440.64 382.77L440.91 382.5L441.19 382.2L441.49 381.89L441.8 381.57L442.12 381.22L442.44 380.87L442.78 380.51L443.12 380.13L443.46 379.75L443.81 379.35L444.17 378.95L444.52 378.55L444.87 378.15L445.23 377.74L445.58 377.33L445.93 376.92L446.27 376.51L446.61 376.11L446.94 375.71L447.27 375.32L447.58 374.94L447.89 374.56L448.18 374.2L448.47 373.85L448.74 373.51L448.99 373.19L449.23 372.88L449.45 372.59L449.65 372.31L449.83 372.06L449.99 371.83L450.14 371.62L450.25 371.44L450.35 371.28L450.41 371.15L450.46 371.05L450.47 370.98L450.47 370.96L450.47 370.93L450.48 370.91L450.48 370.88L450.49 370.85L450.5 370.82L450.51 370.79L450.52 370.76L450.53 370.73L450.55 370.7L450.56 370.67L450.58 370.64L450.59 370.6L450.61 370.57L450.63 370.53L450.65 370.5L450.68 370.46L450.7 370.43L450.72 370.39L450.75 370.35L450.78 370.32L450.8 370.28L450.83 370.24L450.86 370.21L450.89 370.17L450.92 370.13L450.95 370.09L450.98 370.06L451.02 370.02L451.05 369.98L451.08 369.95L451.12 369.91L451.16 369.87L451.19 369.84L451.23 369.8L451.26 369.77L451.3 369.73L451.34 369.7L451.38 369.67L451.42 369.63L451.49 369.57L451.56 369.51L451.64 369.43L451.71 369.36L451.79 369.28L451.87 369.19L451.95 369.1L452.03 369L452.11 368.89L452.19 368.78L452.28 368.67L452.36 368.54L452.45 368.41L452.54 368.28L452.64 368.13L452.73 367.98L452.83 367.83L452.93 367.66L453.03 367.49L453.14 367.31L453.24 367.12L453.35 366.93L453.47 366.73L453.58 366.52L453.7 366.3L453.83 366.07L453.95 365.83L454.08 365.59L454.21 365.33L454.35 365.07L454.49 364.79L454.63 364.51L454.77 364.22L454.92 363.92L455.08 363.61L455.24 363.28L455.4 362.95L455.56 362.61L455.73 362.26L455.91 361.89L455.96 361.78L456.02 361.67L456.07 361.56L456.13 361.45L456.18 361.33L456.24 361.22L456.3 361.11L456.35 361L456.41 360.89L456.47 360.78L456.53 360.67L456.58 360.56L456.64 360.45L456.7 360.34L456.76 360.24L456.81 360.13L456.87 360.03L456.93 359.93L456.98 359.83L457.04 359.73L457.09 359.63L457.15 359.54L457.2 359.44L457.25 359.35L457.3 359.27L457.36 359.18L457.41 359.1L457.45 359.02L457.5 358.94L457.55 358.86L457.59 358.79L457.64 358.72L457.68 358.66L457.72 358.6L457.76 358.54L457.8 358.48L457.84 358.43L457.87 358.38L457.9 358.34L457.94 358.3L457.97 358.26L458 358.22L458.03 358.17L458.07 358.12L458.1 358.06L458.14 358L458.18 357.94L458.22 357.87L458.26 357.79L458.3 357.72L458.34 357.64L458.39 357.56L458.43 357.47L458.48 357.38L458.52 357.29L458.57 357.19L458.61 357.1L458.66 357L458.71 356.89L458.76 356.79L458.81 356.68L458.85 356.57L458.9 356.46L458.95 356.35L459 356.24L459.05 356.12L459.1 356L459.15 355.89L459.2 355.77L459.25 355.65L459.29 355.52L459.34 355.4L459.39 355.28L459.44 355.16L459.48 355.03L459.53 354.91L459.57 354.78L459.62 354.66L459.66 354.54L459.71 354.41L460.1 353.26L460.48 352.18L460.84 351.14L461.18 350.16L461.5 349.22L461.8 348.32L462.08 347.44L462.35 346.6L462.6 345.77L462.83 344.96L463.05 344.15L463.25 343.35L463.44 342.54L463.61 341.72L463.77 340.88L463.91 340.03L464.05 339.15L464.17 338.23L464.28 337.27L464.38 336.27L464.46 335.22L464.54 334.11L464.61 332.93L464.67 331.69L464.72 330.38L464.77 328.98L464.8 327.49L464.83 325.92L464.86 324.24L464.88 322.47L464.89 320.58L464.9 318.57L464.9 316.45L464.91 314.19L464.9 311.81L464.9 309.28L464.89 306.61L464.89 303.79L464.88 300.81L464.87 297.66L464.86 295.07L464.86 292.59L464.85 290.21L464.85 287.93L464.85 285.75L464.85 283.67L464.85 281.68L464.86 279.79L464.87 277.99L464.87 276.28L464.88 274.65L464.9 273.11L464.91 271.65L464.93 270.28L464.95 268.98L464.97 267.76L464.99 266.61L465.02 265.54L465.05 264.53L465.08 263.6L465.11 262.72L465.15 261.92L465.19 261.17L465.23 260.49L465.28 259.86L465.33 259.29L465.38 258.77L465.43 258.31L465.49 257.89L465.55 257.52L465.62 257.2L465.69 256.91L465.76 256.67L465.84 256.47L465.92 256.31L466 256.18L466.09 256.08L466.19 256.01L466.28 255.97L466.38 255.96L466.4 255.96L466.41 255.97L466.44 255.98L466.46 255.99L466.49 256L466.53 256.02L466.57 256.04L466.61 256.06L466.66 256.09L466.71 256.12L466.76 256.15L466.82 256.18L466.88 256.22L466.95 256.26L467.01 256.3L467.08 256.34L467.16 256.39L467.24 256.44L467.32 256.49L467.4 256.54L467.48 256.59L467.57 256.65L467.66 256.71L467.76 256.77L467.85 256.83L467.95 256.9L468.05 256.96L468.15 257.03L468.25 257.1L468.36 257.17L468.46 257.24L468.57 257.31L468.68 257.39L468.79 257.46L468.9 257.54L469.02 257.61L469.13 257.69L469.25 257.77L469.36 257.85L469.48 257.93L471.74 259.44L474.05 260.86L476.42 262.18L478.83 263.41L481.28 264.56L483.77 265.61L486.29 266.57L488.86 267.44L491.45 268.22L494.06 268.91L496.7 269.51L499.37 270.03L502.05 270.45L504.74 270.79L507.44 271.04L510.16 271.2L512.87 271.27L515.59 271.25L518.31 271.15L521.02 270.96L523.73 270.68L526.42 270.32L529.1 269.87L531.77 269.34L534.41 268.72L537.03 268.02L539.62 267.23L542.19 266.35L544.72 265.39L547.21 264.35L549.66 263.22L552.08 262.01L554.44 260.72L556.76 259.34L559.03 257.88L561.24 256.34L563.39 254.71L565.48 253L567.51 251.22L569.47 249.35L569.97 248.84L570.49 248.3L571.02 247.73L571.56 247.13L572.11 246.5L572.67 245.86L573.24 245.19L573.82 244.5L574.4 243.79L574.98 243.06L575.57 242.33L576.15 241.58L576.73 240.82L577.32 240.05L577.89 239.28L578.47 238.51L579.03 237.73L579.59 236.96L580.14 236.18L580.67 235.41L581.2 234.65L581.71 233.9L582.2 233.16L582.68 232.43L583.14 231.71L583.58 231.02L584.01 230.34L584.4 229.68L584.78 229.05L585.13 228.44L585.45 227.86L585.74 227.3L586.01 226.78L586.24 226.29L586.45 225.84L586.62 225.43L586.75 225.05L586.85 224.72L586.91 224.42L586.93 224.18L586.93 224.16L586.93 224.13L586.94 224.1L586.94 224.06L586.95 224.03L586.96 223.98L586.97 223.94L586.99 223.89L587 223.84L587.02 223.78L587.04 223.72L587.06 223.66L587.08 223.6L587.1 223.53L587.13 223.46L587.15 223.39L587.18 223.31L587.21 223.23L587.24 223.15L587.27 223.07L587.3 222.99L587.34 222.9L587.37 222.81L587.41 222.72L587.45 222.63L587.48 222.54L587.52 222.44L587.56 222.35L587.6 222.25L587.64 222.15L587.69 222.05L587.73 221.95L587.77 221.85L587.82 221.74L587.86 221.64L587.91 221.54L587.96 221.43L588 221.33L588.05 221.22L588.1 221.12L588.15 221.01L588.2 220.89L588.25 220.78L588.3 220.66L588.35 220.53L588.41 220.4L588.46 220.27L588.52 220.13L588.57 219.99L588.63 219.85L588.69 219.7L588.74 219.56L588.8 219.4L588.86 219.25L588.92 219.1L588.97 218.94L589.03 218.78L589.09 218.62L589.15 218.46L589.2 218.3L589.26 218.13L589.32 217.97L589.37 217.8L589.43 217.64L589.49 217.47L589.54 217.31L589.6 217.14L589.65 216.98L589.7 216.81L589.75 216.65L589.81 216.49L589.86 216.33L589.9 216.17L589.95 216.01L590 215.86L590.04 215.7L590.09 215.55L590.13 215.4L590.17 215.26L590.21 215.11L590.27 214.89L590.33 214.68L590.39 214.48L590.44 214.29L590.5 214.1L590.55 213.93L590.6 213.76L590.65 213.6L590.7 213.45L590.75 213.31L590.8 213.17L590.85 213.04L590.9 212.92L590.95 212.81L591 212.7L591.04 212.6L591.09 212.51L591.14 212.42L591.19 212.34L591.24 212.26L591.29 212.19L591.35 212.13L591.4 212.07L591.46 212.02L591.51 211.97L591.57 211.92L591.63 211.88L591.69 211.85L591.76 211.82L591.82 211.79L591.89 211.76L591.96 211.74L592.03 211.72L592.11 211.71L592.19 211.7L592.27 211.69L592.36 211.68L592.44 211.68L592.54 211.67L592.63 211.67L594.11 211.67L593.96 398.25L593.81 584.83L592.46 585.02L592.39 585.03L592.32 585.05L592.25 585.06L592.19 585.07L592.13 585.09L592.06 585.11L592.01 585.13L591.95 585.15L591.89 585.17L591.84 585.19L591.79 585.21L591.74 585.24L591.7 585.27L591.65 585.3L591.61 585.33L591.57 585.36L591.53 585.39L591.49 585.43L591.46 585.46L591.42 585.5L591.39 585.54L591.36 585.58L591.34 585.63L591.31 585.67L591.29 585.72L591.26 585.77L591.24 585.82L591.22 585.87L591.21 585.93L591.19 585.99L591.18 586.05L591.16 586.11L591.15 586.17L591.14 586.23L591.13 586.3L591.13 586.37L591.12 586.44L591.12 586.52L591.12 586.59L591.12 586.67L591.12 586.75L591.11 586.84L591.11 586.91L591.11 586.99L591.1 587.06L591.09 587.13L591.08 587.2L591.07 587.26L591.06 587.32L591.05 587.38L591.03 587.44L591.02 587.49L591 587.54L590.98 587.59L590.96 587.64L590.93 587.68L590.9 587.72L590.88 587.76L590.85 587.79L590.81 587.83L590.78 587.86L590.74 587.89L590.7 587.92L590.66 587.94L590.61 587.97L590.57 587.99L590.52 588.01L590.47 588.03L590.41 588.04L590.35 588.06L590.29 588.07L590.23 588.08L590.16 588.09L590.1 588.1L590.02 588.11L589.95 588.11L589.87 588.12L589.79 588.12L589.71 588.12L589.62 588.12L589.53 588.12L589.45 588.13L589.37 588.13L589.29 588.13L589.21 588.14L589.14 588.15L589.07 588.15L589 588.16L588.94 588.18L588.88 588.19L588.82 588.2L588.77 588.22L588.72 588.24L588.67 588.26L588.62 588.28L588.58 588.31L588.53 588.33L588.49 588.36L588.46 588.39L588.42 588.42L588.39 588.46L588.36 588.49L588.33 588.53L588.31 588.58L588.28 588.62L588.26 588.67L588.24 588.72L588.22 588.77L588.2 588.82L588.19 588.88L588.18 588.94L588.16 589L588.15 589.07L588.15 589.14L588.14 589.21L588.13 589.29L588.13 589.36L588.13 589.45L588.12 589.53L588.12 589.62L588.12 589.71L588.12 589.79L588.12 589.87L588.11 589.95L588.11 590.02L588.1 590.1L588.09 590.16L588.08 590.23L588.07 590.29L588.06 590.35L588.04 590.41L588.03 590.47L588.01 590.52L587.99 590.57L587.97 590.61L587.94 590.66L587.92 590.7L587.89 590.74L587.86 590.78L587.83 590.81L587.79 590.84L587.76 590.88L587.72 590.9L587.68 590.93L587.64 590.95L587.59 590.98L587.54 591L587.49 591.02L587.44 591.03L587.38 591.05L587.32 591.06L587.26 591.07L587.2 591.08L587.13 591.09L587.06 591.1L586.99 591.11L586.91 591.11L586.84 591.11L586.75 591.12L586.67 591.12L586.59 591.12L586.52 591.12L586.44 591.12L586.37 591.13L586.3 591.13L586.23 591.14L586.17 591.15L586.11 591.16L586.05 591.17L585.99 591.19L585.93 591.2L585.88 591.22L585.82 591.24L585.77 591.26L585.72 591.28L585.67 591.31L585.63 591.34L585.59 591.36L585.54 591.39L585.5 591.42L585.46 591.46L585.43 591.49L585.39 591.53L585.36 591.57L585.33 591.61L585.3 591.65L585.27 591.7L585.24 591.74L585.21 591.79L585.19 591.84L585.17 591.89L585.15 591.95L585.13 592L585.11 592.06L585.09 592.12L585.07 592.19L585.06 592.25L585.05 592.32L585.03 592.39L585.02 592.46L584.83 593.81L320.21 593.96L55.6 594.11L55.23 592.65L55.21 592.59L55.19 592.52L55.17 592.45L55.15 592.39L55.13 592.33L55.1 592.27L55.07 592.2L55.05 592.15L55.02 592.09L54.99 592.03L54.95 591.97L54.92 591.92L54.89 591.87L54.85 591.82L54.81 591.77L54.77 591.72L54.73 591.67L54.69 591.62L54.65 591.58L54.61 591.53L54.56 591.49L54.52 591.45L54.47 591.41L54.42 591.38L54.37 591.34L54.32 591.31L54.27 591.27L54.22 591.24L54.16 591.21L54.11 591.19L54.06 591.16L54 591.14L53.94 591.11L53.88 591.09L53.83 591.08L53.77 591.06L53.71 591.04L53.64 591.03L53.58 591.02L53.46 591L53.39 590.99L53.33 590.97L53.27 590.96L53.21 590.94L53.16 590.92L53.1 590.91L53.05 590.88L52.99 590.86L52.94 590.84L52.89 590.81L52.84 590.79L52.79 590.76L52.74 590.73L52.69 590.7L52.65 590.67L52.6 590.63L52.56 590.6L52.52 590.56L52.48 590.52L52.44 590.48L52.4 590.44L52.37 590.4L52.33 590.36L52.3 590.31L52.27 590.27L52.24 590.22L52.21 590.17L52.18 590.12L52.16 590.07L52.13 590.02L52.11 589.97L52.09 589.92L52.07 589.86L52.05 589.8L52.04 589.75L52.02 589.69L52.01 589.63L52 589.57L51.99 589.51L51.98 589.45L51.97 589.39L51.95 589.33L51.94 589.27L51.92 589.21L51.91 589.16L51.89 589.1L51.87 589.05L51.84 589L51.82 588.94L51.8 588.89L51.77 588.85L51.74 588.8L51.71 588.75L51.68 588.71L51.65 588.66L51.61 588.62L51.58 588.58L51.54 588.54L51.5 588.5L51.46 588.46L51.42 588.42L51.38 588.39L51.34 588.35L51.29 588.32L51.25 588.29L51.2 588.26L51.15 588.23L51.1 588.2L51.05 588.18L51 588.15L50.95 588.13L50.9 588.11L50.84 588.09L50.79 588.07L50.73 588.06L50.67 588.04L50.61 588.03L50.55 588.02L50.49 588.01L50.43 588L50.37 587.99L50.31 587.98L50.25 587.96L50.19 587.95L50.14 587.93L50.08 587.91L50.03 587.89L49.98 587.87L49.92 587.84L49.87 587.82L49.83 587.79L49.78 587.76L49.73 587.73L49.68 587.7L49.64 587.67L49.6 587.63L49.56 587.6L49.52 587.56L49.48 587.52L49.44 587.48L49.4 587.44L49.37 587.4L49.33 587.35L49.3 587.31L49.27 587.26L49.24 587.21L49.21 587.16L49.19 587.11L49.16 587.06L49.14 587.01L49.11 586.95L49.09 586.9L49.07 586.84L49.06 586.78L49.04 586.72L49.03 586.66L49.01 586.6L49 586.54L48.99 586.48L48.98 586.42L48.97 586.37L48.96 586.31L48.95 586.26L48.94 586.21L48.92 586.15L48.91 586.1L48.89 586.05L48.87 586L48.85 585.95L48.83 585.91L48.81 585.86L48.79 585.81L48.77 585.77L48.74 585.73L48.72 585.68L48.69 585.64L48.67 585.6L48.64 585.56L48.61 585.53L48.58 585.49L48.55 585.46L48.52 585.42L48.49 585.39L48.46 585.36L48.43 585.33L48.4 585.31L48.37 585.28L48.34 585.26L48.3 585.24L48.27 585.22L48.24 585.2L48.2 585.18L48.17 585.17L48.14 585.16L48.1 585.15L48.07 585.14L48.03 585.14L48 585.13L47.96 585.13L47.81 585.13L47.67 585.1L47.53 585.02L47.4 584.86L47.28 584.61L47.17 584.23L47.06 583.7L46.95 582.99L46.86 582.09L46.77 580.96L46.68 579.59L46.6 577.94L46.53 575.99L46.46 573.72L46.4 571.1L46.34 568.1L46.29 564.71L46.24 560.9L46.19 556.64L46.15 551.9L46.11 546.67L46.08 540.92L46.05 534.62L46.02 527.75L46 520.28L45.98 512.19L45.96 503.45L45.95 494.05L45.93 483.94L45.92 473.12L45.91 461.55L45.91 449.21L45.9 436.08L45.9 422.12L45.9 407.32L45.89 391.65L45.89 375.09L45.89 357.61L45.89 339.18L45.89 319.78L45.89 299.37L45.89 280.03L45.89 261.73L45.89 244.45L45.89 228.16L45.89 212.82L45.89 198.41L45.9 184.91L45.9 172.27L45.91 160.48L45.92 149.5L45.93 139.31L45.95 129.87L45.96 121.15L45.98 113.14L46.01 105.79L46.03 99.09L46.07 92.99L46.1 87.48L46.14 82.52L46.19 78.08L46.24 74.14L46.29 70.66L46.35 67.63L46.42 65L46.49 62.74L46.57 60.84L46.65 59.27L46.75 57.98L46.85 56.96L46.95 56.17L47.07 55.59L47.19 55.18L47.32 54.93L47.46 54.79L47.61 54.74L47.76 54.75L47.93 54.8L48.1 54.85L48.29 54.87L48.31 54.87L48.33 54.86L48.35 54.86L48.37 54.85L48.39 54.84L48.42 54.83L48.44 54.81L48.46 54.8L48.48 54.78L48.5 54.76L48.52 54.74L48.54 54.72L48.56 54.69L48.59 54.67L48.61 54.64L48.63 54.61L48.65 54.58L48.67 54.54L48.69 54.51L48.71 54.47L48.72 54.43L48.74 54.4L48.76 54.36L48.78 54.32L48.8 54.27L48.81 54.23L48.83 54.18L48.85 54.14L48.86 54.09L48.88 54.04L48.89 54L48.9 53.95L48.92 53.9L48.93 53.84L48.94 53.79L48.95 53.74L48.96 53.69L48.97 53.63L48.98 53.58L48.99 53.52L49 53.46L49.01 53.4L49.03 53.33L49.04 53.27L49.06 53.22L49.07 53.16L49.09 53.1L49.11 53.05L49.14 52.99L49.16 52.94L49.19 52.89L49.21 52.84L49.24 52.79L49.27 52.74L49.3 52.69L49.33 52.65L49.37 52.6L49.4 52.56L49.44 52.52L49.48 52.48L49.52 52.44L49.56 52.4L49.6 52.37L49.64 52.33L49.68 52.3L49.73 52.27L49.78 52.24L49.83 52.21L49.87 52.18L49.92 52.16L49.98 52.13L50.03 52.11L50.08 52.09L50.14 52.07L50.19 52.05L50.25 52.04L50.31 52.02L50.37 52.01L50.43 52L50.49 51.99L50.55 51.98L50.61 51.97L50.67 51.95L50.73 51.94L50.79 51.92L50.84 51.91L50.9 51.89L50.95 51.87L51 51.84L51.05 51.82L51.1 51.79L51.15 51.77L51.2 51.74L51.25 51.71L51.29 51.68L51.34 51.65L51.38 51.61L51.42 51.58L51.46 51.54L51.5 51.5L51.54 51.46L51.58 51.42L51.61 51.38L51.65 51.34L51.68 51.29L51.71 51.25L51.74 51.2L51.77 51.15L51.8 51.1L51.82 51.05L51.84 51L51.87 50.95L51.89 50.9L51.91 50.84L51.92 50.79L51.94 50.73L51.95 50.67L51.97 50.61L51.98 50.55L51.99 50.49L52 50.43L52.01 50.37L52.02 50.31L52.04 50.25L52.05 50.19L52.07 50.14L52.09 50.08L52.11 50.03L52.13 49.98L52.16 49.92L52.18 49.87L52.21 49.82L52.24 49.78L52.27 49.73L52.3 49.68L52.33 49.64L52.37 49.6L52.4 49.56L52.44 49.51L52.48 49.48L52.52 49.44L52.56 49.4L52.6 49.37L52.65 49.33L52.69 49.3L52.74 49.27L52.79 49.24L52.84 49.21L52.89 49.18L52.94 49.16L52.99 49.14L53.05 49.11L53.1 49.09L53.16 49.07L53.22 49.06L53.27 49.04L53.33 49.03L53.4 49.01L53.46 49L53.52 48.99L53.58 48.98L53.63 48.97L53.69 48.96L53.74 48.95L53.79 48.94L53.84 48.93L53.9 48.92L53.95 48.9L54 48.89L54.04 48.88L54.09 48.86L54.14 48.85L54.19 48.83L54.23 48.81L54.27 48.8L54.32 48.78L54.36 48.76L54.4 48.74L54.44 48.72L54.47 48.7L54.51 48.69L54.54 48.67L54.58 48.65L54.61 48.63L54.64 48.61L54.67 48.58L54.69 48.56L54.72 48.54L54.74 48.52L54.76 48.5L54.78 48.48L54.8 48.46L54.82 48.44L54.83 48.41L54.84 48.39L54.85 48.37L54.86 48.35L54.86 48.33L54.87 48.31L54.87 48.29L54.87 48.26L54.87 48.24L54.88 48.22L54.88 48.19L54.89 48.16L54.9 48.14L54.91 48.11L54.92 48.08L54.93 48.04L54.94 48.01L54.96 47.98L54.97 47.94L54.99 47.91L55.01 47.87L55.03 47.84L55.05 47.8L55.07 47.76L55.1 47.72L55.12 47.69L55.14 47.65L55.17 47.61L55.2 47.57L55.23 47.53L55.25 47.49L55.28 47.44L55.31 47.4L55.35 47.36L55.38 47.32L55.41 47.28L55.44 47.24L55.48 47.2L55.51 47.15L55.55 47.11L55.58 47.07L55.62 47.03L55.66 46.99L55.69 46.95L55.73 46.91L55.77 46.87L55.81 46.83L55.92 46.77L56.14 46.71L56.47 46.65L56.95 46.6L57.58 46.55L58.39 46.5L59.39 46.45L60.6 46.41L62.03 46.36L63.71 46.32L65.65 46.29L67.87 46.25L70.38 46.22L73.2 46.19L76.36 46.16L79.86 46.13L83.73 46.11L87.98 46.08L92.63 46.06L97.69 46.04L103.19 46.02L109.14 46.01L115.56 45.99L122.46 45.98L129.87 45.96L137.8 45.95L146.27 45.94L155.29 45.93L164.88 45.92L175.07 45.92L185.86 45.91L197.27 45.91L209.33 45.9L222.05 45.9L235.44 45.9L249.53 45.89L264.33 45.89L279.85 45.89L296.13 45.89L313.16 45.89L569.57 45.89L569.57 47.68L569.57 47.77L569.57 47.85Z" id="cdTfBB5rX"></path><path d="M554.99 84.66L554.98 84.74L554.98 84.81L554.97 84.88L554.96 84.96L554.95 85.04L554.94 85.1L554.93 85.17L554.92 85.24L554.9 85.32L554.89 85.38L554.87 85.44L554.84 85.51L554.82 85.58L554.81 85.64L554.78 85.7L554.75 85.76L554.73 85.82L554.71 85.88L554.67 85.94L554.64 85.99L554.62 86.05L554.58 86.1L554.55 86.15L554.51 86.21L554.47 86.25L554.44 86.31L554.4 86.35L554.36 86.4L554.31 86.44L554.28 86.49L554.23 86.53L554.18 86.58L554.13 86.61L554.09 86.66L554.04 86.69L553.99 86.73L553.93 86.77L553.88 86.79L553.83 86.83L553.79 86.87L553.73 86.9L553.68 86.95L553.63 86.99L553.56 87.04L553.51 87.09L553.45 87.15L553.38 87.21L553.31 87.27L553.25 87.34L553.18 87.41L553.11 87.49L553.04 87.56L552.97 87.64L552.9 87.72L552.81 87.8L552.74 87.89L552.67 87.97L552.59 88.07L552.52 88.16L552.44 88.25L552.35 88.35L552.28 88.45L552.2 88.55L552.12 88.65L552.04 88.76L551.96 88.86L551.89 88.97L551.8 89.07L551.72 89.18L551.65 89.29L551.57 89.4L551.49 89.51L551.42 89.62L551.35 89.73L551.26 89.84L551.19 89.95L551.12 90.07L551.05 90.17L549.33 92.87L549.06 124.27L549.04 125.75L549.03 127.19L549.01 128.61L549 129.98L548.98 131.33L548.97 132.65L548.96 133.93L548.94 135.19L548.92 136.4L548.9 137.59L548.88 138.75L548.87 139.86L548.85 140.95L548.83 142L548.81 143.01L548.79 143.99L548.78 144.94L548.75 145.85L548.73 146.73L548.71 147.56L548.69 148.36L548.67 149.12L548.65 149.85L548.62 150.54L548.6 151.19L548.59 151.8L548.56 152.38L548.53 152.91L548.51 153.41L548.49 153.87L548.47 154.29L548.44 154.67L548.42 155L548.4 155.3L548.37 155.55L548.34 155.77L548.32 155.94L548.3 156.07L548.27 156.16L548.24 156.21L548.22 156.24L548.18 156.25L548.14 156.27L548.11 156.29L548.06 156.3L548.02 156.31L547.97 156.31L547.92 156.31L547.87 156.31L547.8 156.3L547.74 156.29L547.68 156.28L547.6 156.26L547.53 156.25L547.46 156.23L547.38 156.2L547.3 156.17L547.21 156.14L547.12 156.1L547.03 156.06L546.93 156.02L546.83 155.97L546.72 155.92L546.62 155.88L546.5 155.81L546.4 155.76L546.28 155.7L546.16 155.63L546.04 155.56L545.91 155.49L545.78 155.41L545.65 155.33L545.51 155.25L545.37 155.16L545.23 155.07L545.08 154.98L544.94 154.88L544.78 154.78L544.63 154.69L544.47 154.58L544.06 154.32L543.64 154.05L543.2 153.77L542.74 153.5L542.28 153.22L541.79 152.93L541.29 152.65L540.79 152.37L540.27 152.08L539.74 151.8L539.21 151.51L538.67 151.23L538.12 150.94L537.57 150.66L537.01 150.39L536.45 150.11L535.88 149.84L535.32 149.57L534.76 149.31L534.19 149.05L533.62 148.79L533.06 148.55L532.5 148.29L531.95 148.06L531.4 147.83L530.86 147.6L530.33 147.38L529.8 147.18L529.29 146.98L528.78 146.79L528.28 146.61L527.8 146.43L527.33 146.27L526.88 146.12L526.44 145.98L526.01 145.85L525.61 145.73L525.22 145.63L524.85 145.54L524.51 145.46L524.39 145.44L524.27 145.41L524.16 145.38L524.04 145.35L523.91 145.33L523.79 145.3L523.66 145.26L523.52 145.24L523.4 145.2L523.26 145.17L523.13 145.14L522.99 145.1L522.86 145.07L522.72 145.02L522.58 144.99L522.44 144.95L522.31 144.91L522.16 144.87L522.03 144.83L521.88 144.79L521.75 144.75L521.6 144.71L521.47 144.67L521.33 144.62L521.2 144.59L521.06 144.54L520.93 144.5L520.79 144.46L520.67 144.42L520.53 144.37L520.41 144.34L520.28 144.29L520.16 144.26L520.04 144.21L519.92 144.17L519.8 144.13L519.69 144.09L519.59 144.05L519.48 144.01L519.38 143.98L519.08 143.88L518.71 143.79L518.29 143.7L517.8 143.61L517.26 143.53L516.66 143.46L516.02 143.39L515.33 143.33L514.6 143.27L513.82 143.22L513.02 143.16L512.19 143.13L511.33 143.08L510.44 143.06L509.54 143.03L508.61 143L507.68 142.98L506.74 142.97L505.78 142.97L504.83 142.96L503.88 142.97L502.93 142.97L501.99 142.98L501.06 142.99L500.15 143.02L499.26 143.05L498.38 143.07L497.53 143.11L496.72 143.16L495.94 143.2L495.19 143.25L494.48 143.31L493.82 143.37L493.21 143.44L492.64 143.52L492.13 143.59L491.67 143.68L491.29 143.76L490.95 143.85L490.7 143.95L490.61 143.98L490.53 144.03L490.43 144.07L490.34 144.1L490.24 144.15L490.13 144.18L490.03 144.23L489.92 144.26L489.8 144.31L489.68 144.35L489.57 144.39L489.44 144.44L489.31 144.47L489.19 144.52L489.06 144.56L488.93 144.6L488.79 144.64L488.65 144.69L488.52 144.72L488.38 144.77L488.24 144.81L488.1 144.85L487.96 144.9L487.82 144.93L487.67 144.98L487.53 145.01L487.38 145.06L487.24 145.09L487.1 145.13L486.95 145.17L486.81 145.2L486.67 145.24L486.53 145.27L486.38 145.31L486.25 145.35L486.11 145.37L485.97 145.41L485.83 145.44L485.71 145.46L485.57 145.49L485.45 145.52L485.31 145.54L485.18 145.58L485.04 145.61L484.9 145.64L484.76 145.68L484.62 145.72L484.48 145.75L484.34 145.79L484.19 145.82L484.05 145.86L483.9 145.9L483.76 145.94L483.62 145.99L483.47 146.03L483.33 146.07L483.18 146.11L483.04 146.16L482.89 146.2L482.76 146.25L482.61 146.29L482.48 146.34L482.34 146.38L482.21 146.44L482.07 146.48L481.95 146.53L481.81 146.57L481.69 146.62L481.57 146.66L481.44 146.72L481.33 146.76L481.21 146.81L481.1 146.85L480.99 146.9L480.88 146.94L480.78 146.99L480.69 147.03L480.6 147.08L480.51 147.11L480.42 147.16L480.33 147.2L480.25 147.24L480.17 147.28L480.08 147.32L480 147.37L479.92 147.4L479.84 147.44L479.76 147.48L479.67 147.52L479.59 147.55L479.5 147.59L479.42 147.63L479.34 147.66L479.27 147.69L479.19 147.73L479.11 147.76L479.04 147.79L478.95 147.82L478.88 147.85L478.81 147.88L478.74 147.91L478.67 147.93L478.6 147.95L478.53 147.98L478.47 148L478.4 148.02L478.34 148.04L478.28 148.06L478.22 148.08L478.17 148.1L478.12 148.11L478.06 148.12L478.02 148.13L477.97 148.14L477.93 148.15L477.89 148.16L477.85 148.17L477.82 148.17L477.78 148.18L477.76 148.18L477.35 148.2L476.89 148.28L476.39 148.41L475.84 148.59L475.24 148.83L474.61 149.1L473.94 149.41L473.23 149.77L472.49 150.17L471.72 150.6L470.93 151.08L470.11 151.58L469.26 152.12L468.41 152.68L467.52 153.28L466.63 153.9L465.72 154.54L464.81 155.21L463.88 155.89L462.95 156.6L462.02 157.32L461.1 158.05L460.17 158.8L459.25 159.55L458.34 160.31L457.44 161.09L456.55 161.86L455.68 162.64L454.82 163.41L453.99 164.2L453.18 164.96L452.4 165.73L451.65 166.5L450.93 167.24L450.23 167.98L449.58 168.71L448.97 169.42L448.39 170.12L447.86 170.79L447.38 171.44L446.45 172.77L445.55 174.06L444.7 175.32L443.88 176.56L443.1 177.78L442.36 178.99L441.66 180.19L440.99 181.38L440.36 182.58L439.77 183.78L439.2 184.98L438.67 186.2L438.16 187.44L437.69 188.71L437.25 190L436.84 191.32L436.45 192.68L436.09 194.09L435.75 195.54L435.45 197.05L435.17 198.61L434.9 200.23L434.66 201.92L434.45 203.68L434.25 205.52L434.07 207.44L433.91 209.44L433.76 211.53L433.64 213.72L433.53 216.01L433.43 218.39L433.35 220.9L433.28 223.51L433.22 226.25L433.17 229.1L433.13 232.08L433.1 235.2L433.09 238.45L433.08 241.84L433.07 245.39L433.07 247.88L433.07 250.24L433.07 252.48L433.07 254.58L433.07 256.57L433.06 258.44L433.06 260.2L433.05 261.84L433.03 263.37L433.01 264.79L433 266.12L432.97 267.35L432.93 268.47L432.9 269.51L432.84 270.46L432.79 271.31L432.73 272.09L432.65 272.79L432.56 273.4L432.47 273.95L432.37 274.43L432.25 274.84L432.11 275.18L431.98 275.47L431.82 275.69L431.64 275.86L431.45 275.99L431.26 276.06L431.04 276.09L430.81 276.08L430.54 276.03L430.27 275.94L429.99 275.82L429.68 275.68L429.35 275.5L429 275.31L428.62 275.1L428.24 274.86L427.82 274.63L427.38 274.38L427.25 274.31L427.14 274.23L427.02 274.17L426.89 274.1L426.78 274.03L426.66 273.96L426.54 273.89L426.43 273.83L426.32 273.76L426.21 273.69L426.1 273.63L425.99 273.56L425.88 273.49L425.78 273.43L425.68 273.37L425.58 273.3L425.49 273.24L425.39 273.18L425.3 273.12L425.21 273.06L425.12 273.01L425.04 272.95L424.95 272.9L424.88 272.84L424.8 272.79L424.73 272.75L424.67 272.69L424.6 272.65L424.54 272.6L424.49 272.57L424.43 272.52L424.38 272.48L424.33 272.45L424.3 272.41L424.26 272.39L424.22 272.35L424.2 272.32L424.17 272.3L424.15 272.28L424.14 272.26L424.13 272.24L424.11 272.21L424.09 272.2L424.07 272.18L424.04 272.15L424.02 272.13L423.98 272.11L423.95 272.08L423.92 272.06L423.87 272.03L423.84 272.01L423.79 271.98L423.74 271.95L423.69 271.93L423.64 271.89L423.58 271.86L423.53 271.84L423.48 271.81L423.41 271.77L423.35 271.75L423.29 271.72L423.22 271.68L423.16 271.65L423.09 271.63L423.02 271.59L422.95 271.56L422.88 271.53L422.8 271.5L422.73 271.47L422.66 271.44L422.57 271.41L422.49 271.38L422.42 271.35L422.34 271.32L422.26 271.29L422.18 271.26L422.1 271.23L422.02 271.2L421.93 271.18L421.84 271.15L421.76 271.12L421.68 271.1L421.59 271.06L421.5 271.03L421.42 271L421.33 270.96L421.24 270.92L421.15 270.89L421.05 270.85L420.96 270.82L420.87 270.78L420.78 270.74L420.69 270.7L420.59 270.65L420.5 270.61L420.41 270.57L420.32 270.53L420.23 270.48L420.14 270.44L420.05 270.39L419.96 270.35L419.87 270.3L419.78 270.26L419.7 270.21L419.61 270.17L419.53 270.11L419.45 270.07L419.37 270.02L419.28 269.98L419.2 269.93L419.13 269.89L419.06 269.84L418.99 269.8L418.91 269.75L418.84 269.71L418.78 269.66L418.72 269.62L418.66 269.57L418.6 269.54L418.55 269.49L418.49 269.46L418.44 269.41L418.38 269.37L418.33 269.33L418.27 269.29L418.21 269.26L418.15 269.21L418.09 269.18L418.02 269.14L417.97 269.1L417.91 269.07L417.84 269.03L417.78 269L417.72 268.97L417.65 268.93L417.59 268.91L417.53 268.87L417.46 268.84L417.4 268.82L417.34 268.79L417.27 268.76L417.21 268.73L417.15 268.71L417.08 268.69L417.02 268.66L416.97 268.64L416.9 268.63L416.84 268.61L416.79 268.59L416.73 268.57L416.67 268.55L416.62 268.54L416.56 268.54L416.52 268.52L416.46 268.51L416.41 268.51L416.36 268.5L416.32 268.49L416.27 268.49L416.23 268.49L416.18 268.49L416.14 268.49L416.08 268.48L416.03 268.47L415.97 268.46L415.9 268.45L415.84 268.44L415.78 268.42L415.71 268.4L415.62 268.38L415.55 268.36L415.47 268.34L415.39 268.32L415.31 268.29L415.22 268.26L415.13 268.23L415.04 268.2L414.95 268.17L414.85 268.13L414.76 268.09L414.66 268.06L414.56 268.02L414.46 267.98L414.35 267.94L414.25 267.9L414.15 267.85L414.05 267.81L413.94 267.76L413.84 267.72L413.73 267.67L413.62 267.62L413.51 267.57L413.41 267.52L413.3 267.46L413.19 267.42L413.09 267.36L412.98 267.31L412.87 267.26L412.77 267.2L412.67 267.15L412.56 267.08L412.45 267.03L412.34 266.98L412.23 266.92L412.13 266.87L412.02 266.82L411.9 266.77L411.79 266.71L411.68 266.67L411.57 266.62L411.45 266.57L411.34 266.53L411.23 266.48L411.11 266.44L411 266.39L410.88 266.35L410.77 266.31L410.67 266.26L410.55 266.23L410.44 266.19L410.33 266.16L410.22 266.12L410.13 266.08L410.02 266.06L409.92 266.03L409.82 265.99L409.72 265.97L409.62 265.95L409.52 265.92L409.43 265.9L409.34 265.89L409.25 265.87L409.17 265.85L409.09 265.83L409.01 265.82L408.94 265.81L408.86 265.8L408.79 265.8L408.73 265.8L408.66 265.8L408.6 265.8L408.53 265.79L408.46 265.79L408.39 265.78L408.3 265.77L408.22 265.76L408.14 265.75L408.05 265.73L407.96 265.72L407.86 265.71L407.77 265.69L407.67 265.66L407.57 265.64L407.46 265.61L407.36 265.6L407.24 265.57L407.13 265.54L407.02 265.52L406.91 265.48L406.79 265.45L406.67 265.42L406.55 265.38L406.43 265.35L406.3 265.32L406.19 265.27L406.06 265.24L405.94 265.2L405.82 265.16L405.69 265.12L405.56 265.07L405.44 265.04L405.31 264.99L405.19 264.95L405.07 264.9L404.94 264.86L404.82 264.81L404.7 264.77L404.58 264.72L404.46 264.67L404.34 264.62L404.15 264.54L403.95 264.47L403.77 264.4L403.58 264.33L403.4 264.26L403.21 264.2L403.03 264.14L402.84 264.08L402.65 264.03L402.45 263.98L402.26 263.94L402.05 263.89L401.83 263.85L401.61 263.81L401.37 263.78L401.12 263.74L400.86 263.71L400.59 263.69L400.3 263.66L400 263.63L399.68 263.6L399.33 263.59L398.98 263.57L398.6 263.55L398.2 263.53L397.77 263.52L397.33 263.51L396.86 263.5L396.36 263.49L395.83 263.48L395.28 263.48L394.69 263.47L394.08 263.47L393.43 263.46L392.75 263.46L392.03 263.46L391.28 263.45L390.5 263.45L389.67 263.45L388.81 263.45L387.95 263.45L387.12 263.45L386.33 263.45L385.59 263.46L384.87 263.46L384.19 263.46L383.54 263.47L382.93 263.47L382.34 263.48L381.79 263.48L381.26 263.49L380.76 263.5L380.29 263.51L379.84 263.52L379.42 263.53L379.01 263.55L378.64 263.57L378.28 263.59L377.94 263.6L377.62 263.63L377.32 263.66L377.03 263.69L376.76 263.71L376.5 263.74L376.25 263.78L376.01 263.81L375.79 263.85L375.57 263.89L375.36 263.94L375.17 263.98L374.97 264.03L374.78 264.08L374.59 264.14L374.41 264.2L374.22 264.26L374.04 264.33L373.85 264.4L373.67 264.47L373.47 264.54L373.28 264.62L373.15 264.67L373.04 264.72L372.92 264.77L372.79 264.81L372.68 264.86L372.55 264.9L372.42 264.95L372.3 264.99L372.17 265.04L372.05 265.07L371.93 265.12L371.8 265.16L371.68 265.2L371.55 265.24L371.42 265.27L371.3 265.32L371.18 265.35L371.05 265.38L370.94 265.42L370.82 265.45L370.7 265.48L370.59 265.52L370.47 265.54L370.35 265.57L370.24 265.6L370.13 265.61L370.03 265.64L369.93 265.66L369.82 265.69L369.72 265.71L369.62 265.72L369.53 265.73L369.44 265.75L369.35 265.76L369.27 265.77L369.19 265.78L369.12 265.79L369.04 265.79L368.97 265.8L368.91 265.8L368.85 265.8L368.77 265.8L368.7 265.8L368.63 265.81L368.55 265.82L368.47 265.83L368.39 265.85L368.3 265.87L368.21 265.89L368.12 265.9L368.03 265.92L367.93 265.95L367.83 265.97L367.73 265.99L367.63 266.03L367.52 266.06L367.41 266.08L367.3 266.12L367.2 266.16L367.09 266.19L366.98 266.23L366.87 266.26L366.75 266.31L366.65 266.35L366.53 266.39L366.41 266.44L366.3 266.48L366.19 266.53L366.07 266.57L365.96 266.62L365.84 266.67L365.73 266.71L365.62 266.77L365.5 266.82L365.39 266.87L365.28 266.92L365.18 266.98L365.07 267.03L364.96 267.08L364.85 267.15L364.74 267.2L364.64 267.26L364.54 267.31L364.43 267.36L364.33 267.42L364.22 267.46L364.12 267.52L364.01 267.57L363.91 267.62L363.81 267.67L363.71 267.72L363.61 267.76L363.51 267.81L363.41 267.85L363.31 267.9L363.21 267.94L363.12 267.98L363.02 268.02L362.93 268.06L362.84 268.09L362.75 268.13L362.67 268.17L362.59 268.2L362.51 268.23L362.43 268.26L362.35 268.29L362.27 268.32L362.2 268.34L362.13 268.36L362.07 268.38L362 268.4L361.94 268.42L361.89 268.44L361.83 268.45L361.78 268.46L361.73 268.47L361.69 268.48L361.65 268.49L361.62 268.49L361.58 268.49L361.5 268.5L361.4 268.52L361.27 268.54L361.14 268.59L360.98 268.63L360.81 268.7L360.62 268.78L360.43 268.86L360.21 268.95L359.98 269.05L359.74 269.17L359.48 269.28L359.21 269.41L358.93 269.55L358.64 269.69L358.34 269.84L358.03 270.01L357.71 270.17L357.39 270.34L357.04 270.52L356.71 270.7L356.36 270.89L356.01 271.08L355.65 271.28L355.28 271.48L354.91 271.69L354.54 271.9L354.17 272.11L353.79 272.33L353.41 272.55L353.03 272.77L352.65 273L352.28 273.22L351.9 273.45L351.53 273.67L351.15 273.9L350.78 274.13L350.41 274.36L350.05 274.59L349.69 274.82L349.23 275.12L348.77 275.42L348.31 275.74L347.84 276.05L347.37 276.39L346.91 276.72L346.44 277.05L345.97 277.41L345.51 277.76L345.04 278.11L344.58 278.47L344.11 278.84L343.65 279.21L343.19 279.59L342.73 279.97L342.27 280.35L341.82 280.73L341.37 281.13L340.92 281.52L340.48 281.91L340.03 282.31L339.6 282.72L339.17 283.11L338.74 283.52L338.32 283.92L337.91 284.33L337.5 284.74L337.09 285.14L336.7 285.55L336.31 285.95L335.92 286.36L335.55 286.76L335.18 287.17L334.82 287.58L334.47 287.97L334.13 288.38L333.79 288.77L333.46 289.17L333.15 289.56L332.7 290.13L332.57 290.3L332.43 290.45L332.31 290.6L332.17 290.73L332.05 290.85L331.93 290.96L331.8 291.06L331.68 291.14L331.54 291.2L331.42 291.25L331.28 291.3L331.14 291.33L331 291.33L330.86 291.33L330.7 291.3L330.54 291.26L330.37 291.21L330.2 291.14L330.01 291.05L329.82 290.94L329.61 290.81L329.4 290.67L329.17 290.51L328.93 290.32L328.67 290.12L328.4 289.89L328.12 289.65L327.83 289.38L327.51 289.1L327.18 288.78L326.84 288.46L326.47 288.11L326.08 287.73L325.67 287.33L325.25 286.91L324.8 286.46L324.33 285.99L323.83 285.49L323.32 284.97L322.78 284.44L322.22 283.89L321.63 283.34L321.03 282.79L320.41 282.23L319.77 281.66L319.11 281.1L318.44 280.53L317.77 279.97L317.07 279.41L316.37 278.85L315.66 278.29L314.94 277.74L314.22 277.19L313.5 276.65L312.78 276.12L312.06 275.59L311.34 275.08L310.62 274.58L309.91 274.09L309.2 273.61L308.5 273.15L307.81 272.7L307.14 272.28L306.47 271.86L305.82 271.47L305.19 271.09L304.57 270.74L303.97 270.4L303.4 270.09L302.85 269.81L302.31 269.55L301.81 269.3L301.33 269.09L300.88 268.91L300.46 268.77L300.07 268.64L299.72 268.55L299.4 268.5L299.11 268.47L299.09 268.47L299.05 268.47L299.02 268.46L298.97 268.45L298.93 268.45L298.87 268.43L298.82 268.42L298.76 268.4L298.7 268.38L298.64 268.36L298.57 268.34L298.5 268.32L298.43 268.29L298.36 268.27L298.28 268.24L298.2 268.21L298.11 268.18L298.02 268.14L297.93 268.11L297.84 268.08L297.75 268.04L297.65 267.99L297.56 267.96L297.46 267.91L297.37 267.88L297.26 267.83L297.16 267.79L297.05 267.74L296.95 267.7L296.84 267.64L296.73 267.6L296.63 267.55L296.52 267.5L296.4 267.44L296.29 267.4L296.18 267.35L296.08 267.29L295.96 267.24L295.85 267.18L295.74 267.13L295.63 267.08L295.52 267.02L295.4 266.97L295.28 266.91L295.18 266.87L295.06 266.81L294.94 266.76L294.82 266.71L294.72 266.66L294.6 266.62L294.48 266.57L294.36 266.53L294.26 266.48L294.14 266.44L294.03 266.39L293.91 266.35L293.8 266.31L293.7 266.26L293.59 266.23L293.48 266.19L293.37 266.16L293.27 266.12L293.16 266.09L293.07 266.06L292.97 266.03L292.88 266L292.78 265.98L292.69 265.95L292.6 265.93L292.52 265.9L292.43 265.89L292.35 265.87L292.27 265.85L292.2 265.84L292.13 265.83L292.06 265.82L292 265.81L291.94 265.8L291.88 265.8L291.83 265.8L291.78 265.8L291.72 265.8L291.66 265.79L291.59 265.79L291.51 265.78L291.44 265.76L291.36 265.75L291.27 265.74L291.18 265.72L291.09 265.71L290.99 265.69L290.89 265.66L290.79 265.64L290.69 265.61L290.58 265.59L290.46 265.57L290.34 265.53L290.23 265.51L290.11 265.48L289.98 265.44L289.86 265.42L289.73 265.38L289.59 265.34L289.47 265.31L289.33 265.26L289.2 265.23L289.06 265.19L288.93 265.15L288.79 265.11L288.65 265.06L288.51 265.02L288.37 264.97L288.22 264.93L288.09 264.88L287.95 264.84L287.8 264.79L287.67 264.75L287.52 264.7L287.39 264.65L287.24 264.6L286.84 264.47L286.38 264.34L285.86 264.24L285.29 264.12L284.68 264.02L284.02 263.92L283.32 263.84L282.58 263.75L281.81 263.68L281 263.6L280.17 263.54L279.3 263.49L278.41 263.44L277.51 263.4L276.58 263.36L275.63 263.33L274.68 263.31L273.72 263.3L272.75 263.29L271.78 263.28L270.81 263.29L269.84 263.3L268.89 263.32L267.93 263.34L266.99 263.37L266.07 263.41L265.16 263.45L264.28 263.51L263.42 263.56L262.59 263.63L261.78 263.69L261.01 263.78L260.28 263.86L259.58 263.95L258.93 264.05L258.32 264.15L257.76 264.26L257.26 264.38L256.8 264.51L256.4 264.63L256.28 264.68L256.14 264.73L256 264.78L255.87 264.82L255.74 264.87L255.61 264.91L255.47 264.96L255.34 265L255.21 265.05L255.08 265.08L254.94 265.13L254.81 265.16L254.69 265.21L254.55 265.25L254.43 265.28L254.3 265.32L254.18 265.35L254.06 265.39L253.94 265.43L253.82 265.45L253.71 265.49L253.59 265.52L253.48 265.54L253.37 265.57L253.26 265.6L253.16 265.62L253.06 265.64L252.96 265.67L252.87 265.69L252.78 265.71L252.69 265.72L252.61 265.74L252.53 265.75L252.45 265.77L252.38 265.78L252.31 265.79L252.25 265.79L252.19 265.8L252.14 265.8L252.08 265.8L252.04 265.8L251.98 265.8L251.93 265.81L251.87 265.82L251.8 265.83L251.74 265.84L251.67 265.85L251.6 265.87L251.52 265.89L251.43 265.9L251.35 265.93L251.26 265.95L251.18 265.98L251.09 266L250.99 266.03L250.9 266.06L250.8 266.09L250.7 266.12L250.6 266.16L250.5 266.19L250.39 266.23L250.29 266.26L250.18 266.31L250.07 266.35L249.96 266.39L249.85 266.44L249.74 266.48L249.62 266.53L249.51 266.57L249.4 266.62L249.28 266.66L249.17 266.71L249.05 266.76L248.94 266.81L248.83 266.87L248.71 266.91L248.59 266.97L248.49 267.02L248.37 267.08L248.26 267.13L248.14 267.18L248.04 267.24L247.93 267.29L247.81 267.35L247.7 267.4L247.59 267.44L247.49 267.5L247.38 267.55L247.27 267.6L247.16 267.64L247.05 267.7L246.94 267.74L246.85 267.79L246.74 267.83L246.64 267.88L246.54 267.91L246.44 267.96L246.34 267.99L246.25 268.04L246.16 268.08L246.07 268.11L245.98 268.14L245.89 268.18L245.81 268.21L245.73 268.24L245.65 268.27L245.57 268.29L245.5 268.32L245.43 268.34L245.37 268.36L245.3 268.38L245.24 268.4L245.19 268.42L245.13 268.43L245.08 268.45L245.03 268.45L245 268.46L244.95 268.47L244.93 268.47L244.89 268.47L244.84 268.48L244.76 268.5L244.67 268.53L244.56 268.56L244.45 268.61L244.3 268.66L244.15 268.73L243.98 268.8L243.8 268.87L243.6 268.96L243.39 269.05L243.18 269.16L242.94 269.27L242.7 269.37L242.45 269.49L242.19 269.62L241.92 269.75L241.64 269.89L241.36 270.02L241.08 270.17L240.78 270.31L240.48 270.46L240.18 270.62L239.88 270.77L239.56 270.93L239.26 271.1L238.94 271.26L238.62 271.42L238.32 271.59L238 271.75L237.69 271.93L237.38 272.09L237.07 272.26L236.77 272.42L236.47 272.58L236.17 272.75L235.88 272.91L235.6 273.07L235.32 273.23L235.05 273.39L234.34 273.81L233.6 274.28L232.84 274.78L232.06 275.32L231.27 275.9L230.47 276.51L229.65 277.14L228.82 277.79L227.98 278.47L227.13 279.17L226.28 279.9L225.44 280.64L224.59 281.4L223.74 282.17L222.9 282.95L222.07 283.74L221.24 284.54L220.43 285.34L219.63 286.14L218.85 286.94L218.08 287.75L217.34 288.54L216.61 289.33L215.91 290.11L215.24 290.88L214.59 291.64L213.98 292.38L213.39 293.1L212.84 293.8L212.33 294.49L211.85 295.15L211.42 295.78L211.03 296.38L210.69 296.96L210.39 297.5L210.14 298.01L209.95 298.47L209.8 298.9L209.71 299.29L209.69 299.63L209.69 299.66L209.68 299.68L209.68 299.7L209.67 299.73L209.67 299.75L209.66 299.78L209.65 299.81L209.64 299.84L209.63 299.87L209.62 299.9L209.6 299.93L209.6 299.96L209.58 299.99L209.57 300.03L209.55 300.05L209.53 300.09L209.51 300.12L209.5 300.15L209.47 300.19L209.45 300.21L209.43 300.25L209.41 300.29L209.39 300.31L209.36 300.35L209.33 300.39L209.31 300.41L209.29 300.45L209.26 300.48L209.24 300.51L209.21 300.55L209.17 300.58L209.14 300.61L209.12 300.64L209.09 300.67L209.05 300.7L209.03 300.73L208.99 300.76L208.96 300.78L208.93 300.82L208.9 300.85L208.87 300.87L208.84 300.9L208.8 300.94L208.77 300.97L208.73 301.01L208.69 301.05L208.66 301.1L208.62 301.14L208.59 301.2L208.55 301.25L208.5 301.31L208.47 301.36L208.43 301.42L208.4 301.48L208.35 301.54L208.32 301.61L208.28 301.67L208.24 301.74L208.2 301.81L208.16 301.88L208.13 301.95L208.08 302.03L208.05 302.1L208.01 302.18L207.97 302.25L207.94 302.33L207.9 302.41L207.86 302.49L207.83 302.57L207.79 302.65L207.76 302.73L207.72 302.81L207.69 302.89L207.66 302.97L207.63 303.06L207.59 303.14L207.57 303.23L207.54 303.31L207.51 303.39L207.49 303.47L207.46 303.55L207.43 303.63L207.41 303.72L207.37 303.8L207.34 303.88L207.31 303.96L207.28 304.05L207.25 304.14L207.22 304.22L207.18 304.3L207.15 304.39L207.12 304.47L207.08 304.55L207.04 304.63L207.01 304.71L206.98 304.79L206.95 304.88L206.91 304.96L206.87 305.03L206.84 305.11L206.8 305.18L206.77 305.25L206.73 305.33L206.69 305.4L206.66 305.47L206.62 305.53L206.58 305.61L206.55 305.67L206.51 305.73L206.49 305.79L206.45 305.85L206.41 305.9L206.38 305.96L206.35 306.01L206.31 306.06L206.29 306.1L206.25 306.15L206.22 306.18L206.2 306.23L206.17 306.26L205.71 306.86L205.28 307.54L204.85 308.32L204.46 309.18L204.07 310.11L203.7 311.13L203.36 312.21L203.02 313.36L202.71 314.57L202.41 315.84L202.14 317.15L201.88 318.51L201.64 319.92L201.43 321.36L201.23 322.83L201.05 324.34L200.9 325.87L200.76 327.41L200.64 328.98L200.55 330.55L200.47 332.13L200.43 333.71L200.39 335.27L200.38 336.84L200.4 338.39L200.44 339.93L200.5 341.44L200.58 342.92L200.69 344.37L200.82 345.79L200.97 347.16L201.15 348.5L201.35 349.77L201.57 351L201.82 352.17L202.1 353.27L202.4 354.3L202.73 355.26L203.08 356.14L203.46 356.95L203.49 357.01L203.53 357.07L203.56 357.14L203.59 357.21L203.63 357.28L203.65 357.35L203.69 357.41L203.72 357.49L203.75 357.56L203.78 357.62L203.81 357.69L203.84 357.77L203.87 357.83L203.9 357.9L203.93 357.96L203.94 358.04L203.97 358.1L204 358.17L204.02 358.23L204.04 358.3L204.07 358.36L204.09 358.42L204.11 358.49L204.12 358.55L204.14 358.6L204.16 358.67L204.18 358.72L204.2 358.78L204.2 358.83L204.22 358.88L204.23 358.94L204.24 358.98L204.26 359.04L204.26 359.08L204.27 359.13L204.28 359.16L204.28 359.21L204.29 359.24L204.29 359.28L204.29 359.31L204.29 359.4L204.33 359.53L204.39 359.7L204.46 359.89L204.55 360.13L204.65 360.39L204.77 360.68L204.91 361L205.06 361.35L205.23 361.71L205.4 362.09L205.59 362.5L205.8 362.92L206.01 363.36L206.22 363.82L206.45 364.28L206.68 364.76L206.92 365.24L207.16 365.73L207.41 366.22L207.66 366.71L207.91 367.2L208.16 367.7L208.41 368.19L208.66 368.67L208.91 369.14L209.15 369.6L209.4 370.05L209.63 370.5L209.87 370.92L210.08 371.32L210.3 371.71L210.51 372.08L210.7 372.42L210.88 372.74L211.07 373.03L211.22 373.29L211.37 373.52L211.5 373.72L211.62 373.88L211.66 373.95L211.71 374.01L211.75 374.07L211.8 374.14L211.85 374.21L211.9 374.28L211.96 374.35L212.01 374.43L212.07 374.51L212.13 374.58L212.18 374.66L212.25 374.75L212.3 374.83L212.36 374.91L212.43 375L212.49 375.09L212.55 375.18L212.62 375.27L212.68 375.36L212.74 375.45L212.81 375.54L212.88 375.63L212.94 375.73L213 375.82L213.07 375.91L213.14 376.01L213.2 376.1L213.26 376.19L213.33 376.29L213.39 376.38L213.45 376.47L213.52 376.56L213.58 376.65L213.64 376.74L213.71 376.83L213.77 376.92L213.82 377.01L213.89 377.09L213.94 377.18L214 377.27L214.11 377.42L214.26 377.61L214.44 377.82L214.65 378.09L214.91 378.37L215.19 378.69L215.49 379.03L215.83 379.4L216.19 379.8L216.56 380.21L216.97 380.65L217.39 381.11L217.83 381.57L218.29 382.05L218.75 382.54L219.23 383.04L219.72 383.56L220.21 384.07L220.71 384.59L221.22 385.11L221.72 385.63L222.23 386.15L222.73 386.67L223.23 387.17L223.72 387.68L224.2 388.16L224.68 388.64L225.15 389.11L225.6 389.55L226.03 389.99L226.44 390.4L226.84 390.79L227.22 391.15L227.57 391.49L227.91 391.8L228.2 392.08L228.48 392.33L228.72 392.55L228.93 392.73L229.1 392.87L231.23 394.46L233.41 395.95L235.65 397.34L237.92 398.64L240.25 399.84L242.6 400.94L245.01 401.95L247.43 402.86L249.9 403.67L252.39 404.38L254.91 405L257.46 405.53L260.02 405.96L262.59 406.29L265.18 406.53L267.79 406.67L270.39 406.73L273.01 406.69L275.61 406.56L278.23 406.33L280.83 406.01L283.44 405.59L286.02 405.09L288.59 404.5L291.15 403.81L293.69 403.03L296.2 402.17L298.69 401.2L301.15 400.15L303.58 399.02L305.97 397.79L308.33 396.48L310.64 395.07L312.91 393.57L315.13 392L317.3 390.32L319.42 388.57L321.47 386.72L323.47 384.79L325.41 382.77L325.75 382.4L326.09 382.05L326.4 381.72L326.7 381.4L326.99 381.11L327.27 380.82L327.54 380.56L327.79 380.3L328.04 380.07L328.28 379.85L328.5 379.65L328.72 379.46L328.93 379.28L329.13 379.12L329.31 378.99L329.5 378.85L329.68 378.74L329.86 378.64L330.02 378.55L330.18 378.49L330.33 378.43L330.48 378.39L330.62 378.36L330.77 378.34L330.9 378.34L331.04 378.35L331.16 378.37L331.3 378.41L331.42 378.46L331.55 378.52L331.68 378.59L331.79 378.67L331.92 378.77L332.05 378.88L332.17 379L332.3 379.13L332.43 379.27L332.56 379.42L332.7 379.58L332.83 379.76L333.1 380.11L333.41 380.48L333.73 380.87L334.07 381.28L334.44 381.7L334.83 382.13L335.24 382.58L335.65 383.03L336.09 383.49L336.54 383.95L336.99 384.43L337.46 384.91L337.93 385.39L338.41 385.87L338.9 386.35L339.38 386.83L339.87 387.31L340.37 387.78L340.85 388.25L341.35 388.71L341.83 389.16L342.31 389.6L342.78 390.03L343.24 390.45L343.69 390.84L344.14 391.23L344.57 391.6L344.98 391.95L345.38 392.28L345.76 392.59L346.12 392.88L346.46 393.14L346.78 393.38L347.07 393.59L347.34 393.77L347.58 393.93L347.8 394.04L347.98 394.13L348.13 394.19L348.26 394.2L348.27 394.2L348.3 394.2L348.32 394.21L348.35 394.21L348.36 394.22L348.39 394.23L348.42 394.23L348.44 394.24L348.47 394.26L348.5 394.27L348.53 394.28L348.55 394.29L348.59 394.31L348.62 394.32L348.64 394.34L348.68 394.36L348.71 394.38L348.73 394.39L348.77 394.42L348.8 394.44L348.83 394.46L348.86 394.48L348.9 394.51L348.93 394.53L348.96 394.56L348.99 394.58L349.02 394.61L349.06 394.64L349.08 394.66L349.12 394.69L349.15 394.72L349.18 394.75L349.21 394.78L349.24 394.81L349.27 394.84L349.3 394.87L349.33 394.91L349.36 394.94L349.38 394.97L349.42 395.01L349.51 395.11L349.63 395.22L349.79 395.36L349.97 395.49L350.17 395.64L350.39 395.79L350.64 395.95L350.9 396.12L351.19 396.31L351.49 396.49L351.82 396.68L352.16 396.87L352.52 397.08L352.9 397.29L353.29 397.5L353.69 397.71L354.11 397.93L354.54 398.15L354.97 398.38L355.42 398.6L355.88 398.83L356.35 399.05L356.82 399.29L357.3 399.51L357.78 399.75L358.28 399.97L358.77 400.2L359.26 400.43L359.76 400.65L360.26 400.87L360.76 401.08L361.25 401.3L361.75 401.51L362.24 401.71L362.72 401.91L363.21 402.11L363.69 402.3L364.16 402.48L364.62 402.65L365.07 402.82L366.1 403.18L367.15 403.53L368.22 403.85L369.32 404.16L370.44 404.45L371.59 404.72L372.74 404.97L373.91 405.2L375.1 405.42L376.31 405.61L377.53 405.79L378.75 405.94L380 406.09L381.24 406.2L382.5 406.3L383.77 406.39L385.03 406.46L386.3 406.5L387.58 406.53L388.85 406.54L390.13 406.53L391.4 406.5L392.67 406.46L393.93 406.38L395.2 406.3L396.45 406.2L397.7 406.08L398.94 405.94L400.16 405.78L401.37 405.6L402.57 405.41L403.76 405.19L404.93 404.96L406.08 404.71L407.21 404.44L408.32 404.15L409.41 403.84L410.49 403.52L411.53 403.17L412.55 402.81L413.03 402.63L413.51 402.44L413.99 402.26L414.49 402.06L414.98 401.86L415.48 401.66L415.99 401.44L416.49 401.24L416.99 401.02L417.49 400.8L418 400.58L418.49 400.36L418.99 400.14L419.47 399.91L419.96 399.69L420.45 399.46L420.92 399.24L421.38 399.01L421.84 398.78L422.3 398.57L422.74 398.34L423.17 398.13L423.58 397.91L424 397.7L424.39 397.49L424.77 397.29L425.14 397.08L425.49 396.89L425.82 396.69L426.14 396.51L426.43 396.33L426.71 396.16L426.97 395.99L427.21 395.84L427.43 395.68L427.62 395.54L427.79 395.4L427.94 395.28L428.07 395.17L428.16 395.06L428.19 395.03L428.22 394.99L428.25 394.95L428.28 394.92L428.31 394.89L428.34 394.85L428.38 394.82L428.41 394.79L428.44 394.75L428.48 394.73L428.51 394.7L428.54 394.66L428.58 394.64L428.61 394.61L428.64 394.58L428.68 394.56L428.71 394.53L428.75 394.5L428.78 394.48L428.81 394.46L428.85 394.43L428.88 394.41L428.91 394.39L428.95 394.37L428.98 394.35L429.01 394.33L429.04 394.31L429.07 394.3L429.1 394.29L429.13 394.27L429.16 394.26L429.19 394.25L429.22 394.24L429.25 394.23L429.27 394.22L429.3 394.21L429.32 394.21L429.35 394.2L429.36 394.2L429.39 394.2L429.44 394.2L429.5 394.18L429.58 394.14L429.67 394.1L429.77 394.04L429.89 393.97L430.01 393.89L430.16 393.8L430.3 393.7L430.46 393.58L430.64 393.47L430.82 393.33L431.01 393.19L431.21 393.04L431.42 392.88L431.64 392.71L431.87 392.54L432.09 392.36L432.34 392.17L432.58 391.97L432.83 391.77L433.09 391.56L433.35 391.35L433.62 391.13L433.89 390.91L434.16 390.68L434.44 390.45L434.72 390.21L435 389.97L435.28 389.72L435.57 389.48L435.85 389.24L436.13 388.99L436.42 388.73L436.7 388.48L436.99 388.23L437.27 387.98L437.55 387.72L437.83 387.47L438.1 387.22L438.31 387.03L438.52 386.82L438.76 386.59L439 386.34L439.25 386.07L439.52 385.79L439.8 385.51L440.09 385.19L440.38 384.87L440.69 384.55L440.99 384.21L441.3 383.86L441.61 383.5L441.94 383.14L442.25 382.78L442.57 382.42L442.89 382.05L443.21 381.68L443.53 381.31L443.83 380.94L444.14 380.58L444.44 380.22L444.73 379.87L445.01 379.53L445.29 379.19L445.55 378.86L445.82 378.55L446.06 378.24L446.28 377.95L446.5 377.67L446.7 377.41L446.88 377.16L447.04 376.93L447.19 376.72L447.32 376.54L447.42 376.37L447.51 376.23L447.56 376.11L447.61 376.02L447.62 375.96L447.62 375.94L447.62 375.91L447.63 375.9L447.63 375.87L447.64 375.84L447.65 375.81L447.65 375.79L447.66 375.76L447.67 375.73L447.69 375.71L447.7 375.68L447.72 375.65L447.73 375.62L447.74 375.59L447.76 375.55L447.78 375.53L447.81 375.49L447.83 375.46L447.84 375.43L447.87 375.39L447.9 375.36L447.92 375.33L447.94 375.29L447.97 375.26L448 375.23L448.02 375.19L448.05 375.16L448.08 375.13L448.11 375.09L448.14 375.06L448.17 375.03L448.2 374.99L448.24 374.96L448.27 374.93L448.3 374.89L448.33 374.87L448.37 374.83L448.4 374.8L448.44 374.78L448.48 374.74L448.54 374.69L448.6 374.63L448.67 374.56L448.74 374.5L448.81 374.43L448.88 374.34L448.95 374.26L449.02 374.17L449.1 374.07L449.17 373.98L449.25 373.88L449.32 373.76L449.4 373.64L449.48 373.52L449.57 373.39L449.66 373.25L449.75 373.12L449.84 372.97L449.93 372.81L450.03 372.65L450.12 372.48L450.21 372.31L450.32 372.13L450.42 371.94L450.53 371.74L450.65 371.53L450.76 371.32L450.87 371.1L450.99 370.86L451.12 370.63L451.24 370.38L451.37 370.13L451.5 369.86L451.63 369.59L451.77 369.31L451.92 369.02L452.06 368.72L452.21 368.41L452.36 368.1L452.52 367.76L452.57 367.66L452.62 367.57L452.67 367.47L452.72 367.37L452.77 367.26L452.82 367.16L452.87 367.06L452.92 366.96L452.97 366.86L453.03 366.76L453.08 366.66L453.13 366.56L453.18 366.47L453.23 366.37L453.29 366.28L453.33 366.18L453.39 366.09L453.44 366L453.49 365.91L453.54 365.82L453.59 365.73L453.64 365.65L453.69 365.56L453.73 365.47L453.78 365.4L453.83 365.32L453.88 365.25L453.91 365.18L453.96 365.1L454 365.03L454.04 364.97L454.08 364.91L454.12 364.85L454.15 364.8L454.19 364.74L454.23 364.69L454.26 364.64L454.29 364.6L454.32 364.56L454.35 364.53L454.38 364.49L454.41 364.46L454.43 364.41L454.47 364.37L454.5 364.31L454.53 364.26L454.57 364.2L454.61 364.14L454.64 364.07L454.68 364L454.71 363.93L454.76 363.86L454.79 363.78L454.84 363.7L454.88 363.62L454.92 363.53L454.96 363.45L455 363.36L455.05 363.26L455.09 363.17L455.14 363.07L455.17 362.97L455.22 362.87L455.26 362.77L455.31 362.67L455.35 362.56L455.4 362.45L455.44 362.35L455.49 362.25L455.53 362.14L455.57 362.02L455.61 361.91L455.66 361.8L455.71 361.7L455.74 361.58L455.79 361.47L455.82 361.35L455.87 361.25L455.9 361.14L455.95 361.02L456.3 359.98L456.64 359.01L456.97 358.07L457.27 357.19L457.56 356.34L457.83 355.53L458.09 354.74L458.33 353.98L458.55 353.23L458.76 352.5L458.96 351.77L459.14 351.05L459.31 350.32L459.46 349.58L459.61 348.82L459.73 348.06L459.86 347.26L459.97 346.43L460.07 345.57L460.16 344.67L460.23 343.72L460.3 342.72L460.37 341.66L460.42 340.54L460.46 339.36L460.51 338.1L460.54 336.75L460.56 335.34L460.59 333.82L460.61 332.23L460.62 330.52L460.63 328.71L460.63 326.8L460.64 324.76L460.63 322.62L460.63 320.34L460.62 317.93L460.62 315.39L460.61 312.7L460.6 309.86L460.59 307.53L460.59 305.29L460.58 303.14L460.58 301.09L460.58 299.12L460.58 297.25L460.58 295.45L460.59 293.75L460.6 292.13L460.6 290.59L460.61 289.12L460.63 287.73L460.64 286.41L460.65 285.18L460.67 284.01L460.69 282.91L460.71 281.87L460.74 280.9L460.76 279.99L460.79 279.16L460.82 278.36L460.85 277.64L460.89 276.96L460.92 276.35L460.97 275.78L461.01 275.27L461.06 274.8L461.11 274.39L461.16 274.01L461.21 273.67L461.28 273.39L461.34 273.12L461.4 272.91L461.47 272.73L461.55 272.58L461.62 272.47L461.7 272.38L461.79 272.31L461.87 272.28L461.96 272.27L461.98 272.27L461.99 272.28L462.02 272.29L462.03 272.3L462.06 272.3L462.1 272.32L462.13 272.34L462.17 272.36L462.21 272.39L462.26 272.41L462.3 272.44L462.36 272.47L462.41 272.5L462.48 272.54L462.53 272.57L462.59 272.61L462.66 272.66L462.74 272.7L462.81 272.75L462.88 272.79L462.95 272.84L463.03 272.89L463.12 272.94L463.21 273L463.29 273.05L463.38 273.12L463.47 273.17L463.56 273.23L463.65 273.3L463.75 273.36L463.84 273.42L463.94 273.49L464.03 273.56L464.13 273.62L464.23 273.69L464.34 273.76L464.44 273.83L464.55 273.9L464.65 273.97L464.76 274.04L466.79 275.41L468.88 276.69L471.01 277.88L473.19 278.98L475.39 280.02L477.64 280.97L479.91 281.83L482.23 282.62L484.56 283.32L486.91 283.94L489.29 284.48L491.7 284.95L494.12 285.33L496.54 285.64L498.98 285.86L501.43 286.01L503.87 286.07L506.32 286.05L508.78 285.96L511.22 285.79L513.66 285.54L516.09 285.21L518.5 284.81L520.91 284.33L523.29 283.77L525.65 283.14L527.99 282.43L530.3 281.63L532.58 280.77L534.83 279.83L537.04 278.81L539.22 277.72L541.35 276.56L543.44 275.32L545.49 274L547.48 272.61L549.42 271.14L551.3 269.6L553.13 267.99L554.9 266.31L555.35 265.85L555.82 265.36L556.29 264.85L556.78 264.31L557.28 263.74L557.78 263.16L558.3 262.56L558.82 261.94L559.34 261.3L559.86 260.64L560.4 259.98L560.92 259.3L561.44 258.62L561.97 257.93L562.49 257.23L563.01 256.54L563.52 255.83L564.02 255.14L564.52 254.44L564.99 253.74L565.47 253.06L565.93 252.38L566.37 251.71L566.81 251.06L567.22 250.41L567.62 249.78L568 249.17L568.36 248.58L568.7 248.01L569.01 247.46L569.3 246.94L569.56 246.43L569.81 245.96L570.02 245.52L570.2 245.11L570.36 244.75L570.47 244.4L570.57 244.11L570.62 243.83L570.64 243.62L570.64 243.6L570.64 243.57L570.65 243.55L570.65 243.51L570.66 243.48L570.66 243.44L570.67 243.4L570.69 243.36L570.7 243.31L570.72 243.26L570.74 243.2L570.75 243.15L570.77 243.1L570.79 243.03L570.82 242.97L570.84 242.91L570.86 242.83L570.89 242.76L570.92 242.69L570.94 242.62L570.97 242.55L571.01 242.46L571.03 242.38L571.07 242.3L571.11 242.22L571.13 242.14L571.17 242.05L571.21 241.97L571.24 241.88L571.28 241.79L571.32 241.7L571.36 241.61L571.39 241.52L571.44 241.42L571.48 241.33L571.52 241.24L571.57 241.14L571.6 241.05L571.65 240.95L571.69 240.86L571.74 240.76L571.78 240.65L571.83 240.55L571.87 240.45L571.92 240.33L571.97 240.21L572.02 240.09L572.07 239.97L572.12 239.84L572.17 239.71L572.22 239.58L572.27 239.45L572.32 239.31L572.38 239.17L572.43 239.04L572.48 238.89L572.53 238.75L572.58 238.61L572.64 238.46L572.68 238.32L572.74 238.16L572.79 238.02L572.84 237.87L572.89 237.72L572.95 237.57L572.99 237.43L573.04 237.27L573.09 237.13L573.13 236.97L573.18 236.83L573.23 236.69L573.28 236.54L573.31 236.4L573.36 236.25L573.4 236.12L573.44 235.97L573.49 235.84L573.52 235.7L573.56 235.58L573.59 235.44L573.65 235.24L573.7 235.05L573.76 234.87L573.8 234.7L573.86 234.53L573.9 234.38L573.95 234.22L573.99 234.08L574.04 233.95L574.08 233.82L574.13 233.69L574.17 233.58L574.22 233.47L574.26 233.37L574.31 233.27L574.34 233.18L574.39 233.1L574.43 233.02L574.48 232.94L574.52 232.87L574.57 232.81L574.62 232.76L574.67 232.7L574.72 232.66L574.77 232.61L574.82 232.57L574.87 232.53L574.93 232.5L574.99 232.48L575.05 232.45L575.11 232.42L575.17 232.4L575.23 232.39L575.31 232.38L575.38 232.37L575.45 232.36L575.53 232.35L575.6 232.35L575.69 232.34L575.78 232.34L577.11 232.34L576.97 400.54L576.84 568.74L575.62 568.92L575.56 568.92L575.5 568.94L575.43 568.95L575.38 568.96L575.33 568.98L575.26 569L575.22 569.01L575.16 569.03L575.11 569.05L575.06 569.07L575.02 569.09L574.97 569.11L574.94 569.14L574.89 569.17L574.86 569.19L574.82 569.22L574.78 569.25L574.75 569.28L574.72 569.31L574.68 569.35L574.66 569.38L574.63 569.42L574.61 569.47L574.59 569.5L574.57 569.55L574.54 569.59L574.52 569.64L574.5 569.68L574.5 569.74L574.48 569.79L574.47 569.84L574.45 569.9L574.44 569.95L574.43 570.01L574.42 570.07L574.42 570.13L574.41 570.2L574.41 570.27L574.41 570.33L574.41 570.4L574.41 570.47L574.41 570.56L574.41 570.62L574.41 570.69L574.4 570.75L574.39 570.82L574.38 570.88L574.37 570.93L574.36 570.99L574.35 571.04L574.33 571.1L574.32 571.14L574.31 571.19L574.29 571.23L574.27 571.28L574.24 571.31L574.22 571.35L574.2 571.39L574.17 571.41L574.14 571.45L574.11 571.48L574.07 571.5L574.04 571.53L574 571.55L573.95 571.57L573.92 571.59L573.87 571.61L573.83 571.63L573.77 571.64L573.72 571.66L573.67 571.66L573.61 571.67L573.55 571.68L573.49 571.69L573.42 571.7L573.36 571.7L573.29 571.71L573.22 571.71L573.14 571.71L573.06 571.71L572.98 571.71L572.91 571.72L572.84 571.72L572.76 571.72L572.69 571.73L572.63 571.74L572.57 571.74L572.5 571.75L572.45 571.76L572.4 571.77L572.34 571.78L572.3 571.8L572.25 571.82L572.21 571.84L572.16 571.85L572.12 571.88L572.08 571.9L572.04 571.93L572.02 571.95L571.98 571.98L571.95 572.02L571.93 572.04L571.9 572.08L571.88 572.12L571.85 572.16L571.84 572.21L571.82 572.25L571.8 572.3L571.78 572.34L571.77 572.4L571.76 572.45L571.75 572.5L571.74 572.57L571.74 572.63L571.73 572.69L571.72 572.76L571.72 572.83L571.72 572.91L571.71 572.98L571.71 573.06L571.71 573.14L571.71 573.22L571.71 573.29L571.7 573.36L571.7 573.42L571.69 573.49L571.68 573.55L571.67 573.61L571.66 573.67L571.66 573.72L571.64 573.77L571.63 573.83L571.61 573.87L571.59 573.92L571.57 573.95L571.55 574L571.53 574.04L571.5 574.07L571.48 574.11L571.45 574.14L571.41 574.16L571.39 574.2L571.35 574.22L571.31 574.24L571.28 574.26L571.23 574.29L571.19 574.31L571.14 574.32L571.1 574.33L571.04 574.35L570.99 574.36L570.93 574.37L570.88 574.38L570.82 574.39L570.75 574.4L570.69 574.41L570.62 574.41L570.56 574.41L570.47 574.41L570.4 574.41L570.33 574.41L570.27 574.41L570.2 574.41L570.13 574.42L570.07 574.42L570.01 574.43L569.95 574.44L569.9 574.45L569.84 574.46L569.79 574.48L569.74 574.49L569.69 574.5L569.64 574.52L569.59 574.54L569.55 574.56L569.5 574.59L569.47 574.61L569.43 574.63L569.38 574.66L569.35 574.68L569.31 574.72L569.28 574.75L569.25 574.78L569.22 574.82L569.19 574.86L569.17 574.89L569.14 574.94L569.11 574.97L569.09 575.02L569.07 575.06L569.05 575.11L569.03 575.16L569.01 575.21L569 575.26L568.98 575.32L568.96 575.38L568.95 575.43L568.94 575.5L568.92 575.56L568.92 575.62L568.74 576.84L330.19 576.97L91.64 577.11L91.31 575.79L91.29 575.74L91.27 575.68L91.26 575.61L91.24 575.56L91.22 575.51L91.19 575.45L91.17 575.39L91.15 575.34L91.12 575.29L91.09 575.23L91.06 575.18L91.03 575.14L91 575.09L90.97 575.05L90.93 575L90.9 574.96L90.86 574.91L90.82 574.87L90.79 574.83L90.75 574.78L90.71 574.75L90.67 574.71L90.62 574.68L90.58 574.65L90.53 574.61L90.49 574.59L90.44 574.55L90.4 574.52L90.35 574.5L90.3 574.48L90.26 574.45L90.2 574.43L90.15 574.41L90.09 574.39L90.05 574.38L89.99 574.36L89.94 574.34L89.88 574.33L89.82 574.32L89.71 574.31L89.65 574.3L89.6 574.28L89.54 574.27L89.49 574.25L89.44 574.23L89.39 574.23L89.34 574.2L89.29 574.18L89.25 574.16L89.2 574.14L89.16 574.12L89.11 574.09L89.07 574.06L89.02 574.04L88.98 574.01L88.94 573.97L88.9 573.95L88.87 573.91L88.83 573.87L88.79 573.84L88.76 573.8L88.73 573.77L88.7 573.73L88.67 573.68L88.64 573.65L88.61 573.6L88.59 573.56L88.56 573.51L88.54 573.47L88.52 573.42L88.5 573.38L88.48 573.33L88.46 573.28L88.44 573.22L88.43 573.18L88.42 573.13L88.41 573.07L88.4 573.02L88.39 572.96L88.38 572.91L88.37 572.85L88.35 572.8L88.34 572.75L88.33 572.69L88.32 572.65L88.3 572.59L88.28 572.55L88.25 572.5L88.24 572.45L88.22 572.4L88.19 572.37L88.16 572.32L88.14 572.28L88.11 572.24L88.08 572.2L88.05 572.16L88.02 572.12L87.98 572.09L87.95 572.05L87.91 572.02L87.88 571.98L87.84 571.95L87.8 571.92L87.76 571.89L87.72 571.86L87.68 571.84L87.63 571.81L87.59 571.78L87.54 571.76L87.5 571.74L87.45 571.72L87.41 571.7L87.35 571.68L87.31 571.66L87.25 571.66L87.2 571.64L87.15 571.63L87.09 571.62L87.04 571.61L86.98 571.6L86.93 571.59L86.87 571.58L86.82 571.57L86.77 571.56L86.72 571.54L86.67 571.52L86.62 571.5L86.58 571.48L86.52 571.46L86.48 571.44L86.44 571.41L86.4 571.39L86.35 571.36L86.31 571.33L86.27 571.3L86.23 571.27L86.2 571.24L86.16 571.21L86.13 571.17L86.09 571.13L86.05 571.1L86.03 571.06L85.99 571.02L85.96 570.98L85.94 570.93L85.91 570.89L85.88 570.84L85.86 570.8L85.84 570.75L85.82 570.71L85.79 570.66L85.77 570.61L85.76 570.56L85.75 570.5L85.73 570.45L85.72 570.39L85.7 570.34L85.69 570.29L85.68 570.23L85.68 570.18L85.67 570.13L85.66 570.08L85.65 570.03L85.64 569.99L85.62 569.93L85.61 569.89L85.59 569.84L85.58 569.8L85.56 569.75L85.54 569.72L85.52 569.67L85.5 569.63L85.49 569.59L85.46 569.56L85.44 569.51L85.41 569.47L85.4 569.44L85.37 569.4L85.34 569.38L85.32 569.34L85.29 569.31L85.26 569.28L85.23 569.25L85.21 569.22L85.18 569.19L85.15 569.18L85.13 569.15L85.1 569.13L85.06 569.11L85.04 569.1L85.01 569.08L84.97 569.06L84.95 569.05L84.92 569.04L84.88 569.03L84.86 569.02L84.82 569.02L84.79 569.01L84.76 569.01L84.62 569.01L84.49 568.99L84.37 568.92L84.25 568.77L84.14 568.55L84.04 568.2L83.94 567.73L83.85 567.09L83.76 566.27L83.68 565.26L83.6 564.02L83.53 562.53L83.47 560.77L83.4 558.73L83.35 556.37L83.3 553.66L83.25 550.61L83.21 547.17L83.16 543.33L83.12 539.06L83.09 534.34L83.06 529.16L83.03 523.48L83.01 517.29L82.99 510.55L82.97 503.26L82.95 495.38L82.94 486.91L82.93 477.79L82.92 468.04L82.91 457.61L82.91 446.48L82.9 434.65L82.9 422.06L82.9 408.72L82.89 394.59L82.89 379.66L82.89 363.91L82.89 347.29L82.89 329.8L82.89 311.4L82.89 293.97L82.89 277.47L82.89 261.89L82.89 247.21L82.89 233.38L82.89 220.39L82.9 208.22L82.9 196.82L82.91 186.19L82.92 176.29L82.93 167.11L82.94 158.6L82.95 150.74L82.97 143.52L83 136.89L83.02 130.85L83.05 125.35L83.08 120.38L83.12 115.91L83.16 111.91L83.21 108.36L83.25 105.22L83.3 102.49L83.37 100.12L83.43 98.08L83.5 96.37L83.58 94.95L83.67 93.79L83.76 92.87L83.85 92.16L83.95 91.63L84.06 91.26L84.18 91.04L84.31 90.91L84.44 90.87L84.58 90.88L84.73 90.92L84.88 90.97L85.05 90.99L85.07 90.99L85.09 90.98L85.11 90.98L85.13 90.97L85.14 90.96L85.17 90.95L85.19 90.93L85.21 90.92L85.22 90.9L85.24 90.89L85.26 90.87L85.28 90.85L85.3 90.82L85.32 90.81L85.34 90.78L85.36 90.75L85.38 90.72L85.4 90.69L85.41 90.66L85.43 90.62L85.44 90.59L85.46 90.56L85.48 90.53L85.5 90.49L85.51 90.44L85.52 90.41L85.54 90.36L85.56 90.33L85.57 90.28L85.59 90.24L85.59 90.2L85.6 90.16L85.62 90.11L85.63 90.06L85.64 90.01L85.65 89.97L85.66 89.92L85.67 89.87L85.68 89.82L85.68 89.77L85.69 89.71L85.7 89.66L85.72 89.6L85.73 89.54L85.75 89.5L85.76 89.44L85.77 89.39L85.79 89.34L85.82 89.29L85.84 89.25L85.86 89.2L85.88 89.16L85.91 89.11L85.94 89.07L85.96 89.02L85.99 88.98L86.03 88.94L86.05 88.9L86.09 88.87L86.13 88.83L86.16 88.79L86.2 88.76L86.23 88.73L86.27 88.7L86.31 88.67L86.35 88.64L86.4 88.61L86.44 88.59L86.48 88.56L86.52 88.54L86.58 88.52L86.62 88.5L86.67 88.48L86.72 88.46L86.77 88.44L86.82 88.43L86.87 88.42L86.93 88.41L86.98 88.4L87.04 88.39L87.09 88.38L87.15 88.37L87.2 88.35L87.25 88.34L87.31 88.33L87.35 88.32L87.41 88.3L87.45 88.28L87.5 88.25L87.54 88.24L87.59 88.21L87.63 88.19L87.68 88.16L87.72 88.14L87.76 88.11L87.8 88.08L87.84 88.05L87.88 88.02L87.91 87.98L87.95 87.95L87.98 87.91L88.02 87.88L88.05 87.84L88.08 87.8L88.11 87.76L88.14 87.72L88.16 87.68L88.19 87.63L88.22 87.59L88.24 87.54L88.25 87.5L88.28 87.45L88.3 87.41L88.32 87.35L88.33 87.31L88.34 87.25L88.35 87.2L88.37 87.15L88.38 87.09L88.39 87.04L88.4 86.98L88.41 86.93L88.42 86.87L88.43 86.82L88.44 86.77L88.46 86.72L88.48 86.67L88.5 86.62L88.52 86.58L88.54 86.52L88.56 86.48L88.59 86.43L88.61 86.4L88.64 86.35L88.67 86.31L88.7 86.27L88.73 86.23L88.76 86.2L88.79 86.15L88.83 86.13L88.87 86.09L88.9 86.05L88.94 86.03L88.98 85.99L89.02 85.96L89.07 85.94L89.11 85.91L89.16 85.88L89.2 85.86L89.25 85.84L89.29 85.82L89.34 85.79L89.39 85.77L89.44 85.76L89.5 85.75L89.54 85.73L89.6 85.72L89.66 85.7L89.71 85.69L89.77 85.68L89.82 85.68L89.87 85.67L89.92 85.66L89.97 85.65L90.01 85.64L90.06 85.63L90.11 85.62L90.16 85.6L90.2 85.59L90.24 85.59L90.28 85.57L90.33 85.56L90.37 85.54L90.41 85.52L90.44 85.51L90.49 85.5L90.53 85.48L90.56 85.46L90.6 85.44L90.62 85.42L90.66 85.41L90.69 85.4L90.72 85.38L90.75 85.36L90.78 85.34L90.81 85.32L90.82 85.3L90.85 85.28L90.87 85.26L90.89 85.24L90.9 85.22L90.92 85.21L90.94 85.19L90.95 85.16L90.96 85.14L90.97 85.13L90.98 85.11L90.98 85.09L90.99 85.07L90.99 85.05L90.99 85.03L90.99 85.01L90.99 84.99L90.99 84.96L91 84.94L91.01 84.92L91.02 84.89L91.03 84.86L91.04 84.83L91.05 84.8L91.07 84.77L91.08 84.74L91.09 84.71L91.11 84.67L91.13 84.65L91.15 84.61L91.17 84.58L91.19 84.54L91.21 84.51L91.23 84.48L91.26 84.44L91.28 84.4L91.31 84.37L91.33 84.33L91.36 84.29L91.38 84.25L91.42 84.22L91.45 84.18L91.47 84.14L91.5 84.11L91.54 84.07L91.56 84.03L91.6 83.99L91.63 83.95L91.66 83.92L91.7 83.88L91.72 83.85L91.76 83.81L91.8 83.77L91.83 83.74L91.93 83.68L92.13 83.63L92.43 83.58L92.86 83.53L93.43 83.48L94.16 83.44L95.06 83.39L96.15 83.36L97.44 83.31L98.95 83.28L100.7 83.25L102.7 83.21L104.97 83.19L107.51 83.16L110.36 83.13L113.51 83.11L117 83.09L120.83 83.06L125.03 83.04L129.59 83.03L134.55 83.01L139.91 83L145.7 82.98L151.92 82.97L158.6 82.95L165.75 82.94L173.38 82.94L181.51 82.93L190.16 82.92L199.35 82.92L209.07 82.91L219.36 82.91L230.23 82.9L241.7 82.9L253.77 82.9L266.47 82.89L279.81 82.89L293.8 82.89L308.48 82.89L323.83 82.89L554.99 82.89L554.99 84.5L554.99 84.58L554.99 84.66Z" id="cm8L9dk1U"></path></defs><g><g><g><use xlink:href="#cdTfBB5rX" opacity="1" fill="#ffffff" fill-opacity="0"></use><g><use xlink:href="#cdTfBB5rX" opacity="1" fill-opacity="0" stroke="#000000" stroke-width="1" stroke-opacity="0"></use></g></g><g><use xlink:href="#cm8L9dk1U" opacity="1" fill="#000000" fill-opacity="0"></use><g><use xlink:href="#cm8L9dk1U" opacity="1" fill-opacity="0" stroke="#fc7c54" stroke-width="24" stroke-opacity="1"></use></g></g></g></g></svg>