<svg id="svg" xmlns="http://www.w3.org/2000/svg" xmlns:xlink="http://www.w3.org/1999/xlink" width="400" height="400" viewBox="0, 0, 400,400"><g id="svgg"><path id="path0" d="M366.800 17.987 C 366.800 18.774,366.514 19.368,365.979 19.697 C 365.527 19.973,364.582 21.100,363.879 22.200 L 362.600 24.200 362.400 47.480 C 362.274 62.199,362.053 70.906,361.800 71.156 C 361.536 71.417,360.587 71.008,359.000 69.949 C 355.075 67.328,347.539 63.886,344.200 63.188 C 343.100 62.958,341.390 62.462,340.400 62.085 C 337.790 61.092,321.336 61.080,319.138 62.069 C 318.334 62.431,316.624 62.945,315.338 63.210 C 314.052 63.475,312.332 64.032,311.516 64.446 C 310.700 64.861,309.811 65.200,309.542 65.200 C 305.777 65.200,291.554 76.097,287.025 82.451 C 277.556 95.733,276.438 101.514,276.414 137.271 C 276.397 162.576,276.652 161.278,272.194 158.762 C 270.987 158.081,269.908 157.374,269.794 157.191 C 269.681 157.008,268.916 156.639,268.094 156.371 C 267.272 156.103,266.171 155.550,265.646 155.142 C 265.121 154.734,264.348 154.400,263.928 154.400 C 263.507 154.400,262.318 153.950,261.285 153.400 C 260.252 152.850,258.917 152.400,258.318 152.400 C 257.719 152.400,256.278 152.009,255.115 151.532 C 253.151 150.726,252.330 150.664,243.600 150.664 C 234.870 150.664,234.049 150.726,232.085 151.532 C 230.922 152.009,229.464 152.400,228.845 152.400 C 228.226 152.400,226.873 152.850,225.838 153.400 C 224.804 153.950,223.712 154.400,223.412 154.400 C 222.694 154.400,218.112 156.839,214.600 159.091 C 210.057 162.005,205.089 166.466,202.106 170.310 C 200.702 172.119,200.269 171.893,195.049 166.617 C 189.838 161.350,179.717 154.452,177.104 154.387 C 176.827 154.381,175.700 153.932,174.600 153.391 C 173.500 152.850,172.196 152.406,171.702 152.404 C 171.207 152.402,169.677 152.002,168.302 151.515 C 164.587 150.201,149.069 150.218,145.437 151.540 C 144.138 152.013,142.698 152.402,142.237 152.404 C 141.777 152.406,140.500 152.850,139.400 153.391 C 138.300 153.932,137.177 154.381,136.904 154.387 C 136.460 154.399,132.233 156.508,129.610 158.027 C 122.652 162.057,110.800 174.317,110.800 177.486 C 110.800 177.715,110.539 178.118,110.220 178.383 C 109.902 178.648,109.429 179.525,109.170 180.332 C 108.911 181.139,108.471 182.070,108.193 182.400 C 103.634 187.804,102.317 212.490,106.187 219.975 C 106.524 220.627,106.800 221.417,106.800 221.731 C 106.800 222.422,111.162 231.094,112.235 232.537 C 112.656 233.103,113.450 234.229,114.000 235.041 C 114.886 236.347,123.644 245.394,125.200 246.609 C 145.963 262.826,177.752 259.494,196.600 239.126 C 200.046 235.402,200.737 235.121,202.096 236.890 C 204.712 240.298,212.511 247.600,213.533 247.600 C 213.736 247.600,214.123 247.866,214.393 248.192 C 215.229 249.199,221.568 252.366,226.000 253.990 C 236.028 257.665,251.256 257.660,261.200 253.979 C 265.877 252.247,271.939 249.237,272.773 248.233 C 273.062 247.885,273.472 247.600,273.685 247.600 C 274.086 247.600,277.442 244.909,280.144 242.421 C 282.070 240.647,287.200 234.578,287.200 234.073 C 287.200 233.867,287.485 233.462,287.833 233.173 C 288.472 232.643,289.257 231.289,290.835 228.000 C 291.310 227.010,291.919 225.930,292.189 225.600 C 292.458 225.270,292.991 224.100,293.372 223.000 C 297.020 212.483,296.898 213.825,296.823 185.071 C 296.761 161.516,296.918 157.200,297.835 157.200 C 297.930 157.200,298.861 157.793,299.904 158.518 C 319.816 172.362,349.583 169.806,366.731 152.779 C 371.144 148.397,378.400 137.938,378.400 135.959 C 378.400 135.773,378.753 134.852,379.184 133.911 C 379.615 132.970,380.250 131.165,380.595 129.900 C 381.144 127.888,381.346 127.600,382.213 127.600 L 383.203 127.600 383.101 73.300 L 383.000 19.000 382.125 18.875 C 381.579 18.798,381.202 18.421,381.125 17.875 C 381.002 17.017,380.860 16.998,373.900 16.891 L 366.800 16.782 366.800 17.987 M338.200 82.783 C 369.821 92.096,370.801 134.666,339.645 145.531 C 332.642 147.973,321.545 146.927,314.200 143.132 C 296.486 133.981,291.664 109.171,304.561 93.536 C 306.585 91.082,310.882 87.200,311.574 87.200 C 311.740 87.200,312.399 86.750,313.038 86.200 C 313.677 85.651,314.415 85.201,314.679 85.200 C 314.942 85.200,316.004 84.750,317.038 84.200 C 318.073 83.650,319.207 83.197,319.560 83.194 C 319.912 83.191,321.280 82.841,322.600 82.416 C 326.560 81.141,333.151 81.296,338.200 82.783 M164.658 171.776 C 168.665 172.829,172.105 174.321,174.593 176.086 C 175.477 176.713,176.647 177.535,177.193 177.913 C 187.801 185.255,192.629 202.810,187.518 215.463 C 174.024 248.869,124.533 239.648,124.363 203.696 C 124.262 182.548,144.535 166.489,164.658 171.776 M251.546 171.847 C 259.317 173.959,268.079 180.205,271.185 185.847 C 271.655 186.701,272.292 187.850,272.602 188.400 C 282.124 205.317,273.127 228.110,254.395 234.527 C 241.212 239.044,223.966 233.859,217.307 223.376 C 217.036 222.949,216.370 221.930,215.826 221.110 C 209.935 212.230,209.468 198.241,214.728 188.243 C 221.633 175.121,237.534 168.040,251.546 171.847 " stroke="none" fill="#fcf9f8" fill-rule="evenodd"></path><path id="path1" d="M23.429 17.429 C 23.083 17.774,22.800 18.212,22.800 18.401 C 22.800 18.590,22.395 18.802,21.900 18.872 C 21.330 18.953,20.954 19.321,20.875 19.875 C 20.798 20.421,20.421 20.798,19.875 20.875 C 19.321 20.954,18.953 21.330,18.872 21.900 C 18.802 22.395,18.590 22.800,18.401 22.800 C 16.712 22.800,16.800 13.060,16.800 199.855 C 16.800 377.094,16.801 377.200,18.186 377.200 C 18.493 377.200,18.802 377.605,18.872 378.100 C 18.953 378.670,19.321 379.046,19.875 379.125 C 20.421 379.202,20.798 379.579,20.875 380.125 C 20.954 380.678,21.330 381.047,21.899 381.128 C 22.461 381.207,22.890 381.621,23.043 382.228 L 23.287 383.201 200.143 383.100 L 377.000 383.000 377.128 382.100 C 377.220 381.449,377.524 381.200,378.228 381.200 C 378.998 381.200,379.200 380.992,379.200 380.200 C 379.200 379.400,379.400 379.200,380.200 379.200 C 380.992 379.200,381.200 378.998,381.200 378.228 C 381.200 377.524,381.449 377.220,382.100 377.128 L 383.000 377.000 383.101 252.300 L 383.201 127.600 382.212 127.600 C 381.347 127.600,381.144 127.889,380.595 129.900 C 380.250 131.165,379.615 132.970,379.184 133.911 C 378.753 134.852,378.400 135.773,378.400 135.959 C 378.400 137.938,371.144 148.397,366.731 152.779 C 349.583 169.806,319.816 172.362,299.904 158.518 C 298.861 157.793,297.930 157.200,297.835 157.200 C 296.918 157.200,296.761 161.516,296.823 185.071 C 296.898 213.825,297.020 212.483,293.372 223.000 C 292.991 224.100,292.458 225.270,292.189 225.600 C 291.919 225.930,291.310 227.010,290.835 228.000 C 289.257 231.289,288.472 232.643,287.833 233.173 C 287.485 233.462,287.200 233.867,287.200 234.073 C 287.200 234.578,282.070 240.647,280.144 242.421 C 277.442 244.909,274.086 247.600,273.685 247.600 C 273.472 247.600,273.062 247.885,272.773 248.233 C 271.939 249.237,265.877 252.247,261.200 253.979 C 251.256 257.660,236.028 257.665,226.000 253.990 C 221.568 252.366,215.229 249.199,214.393 248.192 C 214.123 247.866,213.736 247.600,213.533 247.600 C 212.511 247.600,204.712 240.298,202.096 236.890 C 200.737 235.121,200.046 235.402,196.600 239.126 C 177.752 259.494,145.963 262.826,125.200 246.609 C 123.644 245.394,114.886 236.347,114.000 235.041 C 113.450 234.229,112.656 233.103,112.235 232.537 C 111.162 231.094,106.800 222.422,106.800 221.731 C 106.800 221.417,106.524 220.627,106.187 219.975 C 102.317 212.490,103.634 187.804,108.193 182.400 C 108.471 182.070,108.911 181.139,109.170 180.332 C 109.429 179.525,109.902 178.648,110.220 178.383 C 110.539 178.118,110.800 177.715,110.800 177.486 C 110.800 174.317,122.652 162.057,129.610 158.027 C 132.233 156.508,136.460 154.399,136.904 154.387 C 137.177 154.381,138.300 153.932,139.400 153.391 C 140.500 152.850,141.777 152.406,142.237 152.404 C 142.698 152.402,144.138 152.013,145.437 151.540 C 149.069 150.218,164.587 150.201,168.302 151.515 C 169.677 152.002,171.207 152.402,171.702 152.404 C 172.196 152.406,173.500 152.850,174.600 153.391 C 175.700 153.932,176.827 154.381,177.104 154.387 C 179.717 154.452,189.838 161.350,195.049 166.617 C 200.269 171.893,200.702 172.119,202.106 170.310 C 205.089 166.466,210.057 162.005,214.600 159.091 C 218.112 156.839,222.694 154.400,223.412 154.400 C 223.712 154.400,224.804 153.950,225.838 153.400 C 226.873 152.850,228.226 152.400,228.845 152.400 C 229.464 152.400,230.922 152.009,232.085 151.532 C 234.049 150.726,234.870 150.664,243.600 150.664 C 252.330 150.664,253.151 150.726,255.115 151.532 C 256.278 152.009,257.719 152.400,258.318 152.400 C 258.917 152.400,260.252 152.850,261.285 153.400 C 262.318 153.950,263.507 154.400,263.928 154.400 C 264.348 154.400,265.121 154.734,265.646 155.142 C 266.171 155.550,267.272 156.103,268.094 156.371 C 268.916 156.639,269.681 157.008,269.794 157.191 C 269.908 157.374,270.987 158.081,272.194 158.762 C 276.652 161.278,276.397 162.576,276.414 137.271 C 276.438 101.514,277.556 95.733,287.025 82.451 C 291.554 76.097,305.777 65.200,309.542 65.200 C 309.811 65.200,310.700 64.861,311.516 64.446 C 312.332 64.032,314.052 63.475,315.338 63.210 C 316.624 62.945,318.334 62.431,319.138 62.069 C 321.336 61.080,337.790 61.092,340.400 62.085 C 341.390 62.462,343.100 62.958,344.200 63.188 C 347.539 63.886,355.075 67.328,359.000 69.949 C 360.587 71.008,361.536 71.417,361.800 71.156 C 362.053 70.906,362.274 62.199,362.400 47.480 L 362.600 24.200 363.879 22.200 C 364.582 21.100,365.527 19.973,365.979 19.697 C 366.512 19.370,366.800 18.773,366.800 17.997 L 366.800 16.800 195.429 16.800 C 40.170 16.800,23.998 16.859,23.429 17.429 M322.600 82.416 C 321.280 82.841,319.912 83.191,319.560 83.194 C 319.207 83.197,318.073 83.650,317.038 84.200 C 316.004 84.750,314.942 85.200,314.679 85.200 C 314.415 85.201,313.677 85.651,313.038 86.200 C 312.399 86.750,311.740 87.200,311.574 87.200 C 310.882 87.200,306.585 91.082,304.561 93.536 C 291.664 109.171,296.486 133.981,314.200 143.132 C 325.370 148.903,339.365 147.916,349.183 140.665 C 363.589 130.025,366.735 110.260,356.388 95.402 C 349.137 84.989,333.397 78.940,322.600 82.416 M149.200 171.799 C 122.699 179.018,115.429 211.900,136.523 229.137 C 151.578 241.439,175.781 237.112,185.097 220.453 C 193.243 205.887,189.646 186.532,177.193 177.913 C 176.647 177.535,175.477 176.713,174.593 176.086 C 167.900 171.338,157.399 169.565,149.200 171.799 M235.200 171.960 C 214.039 178.067,204.062 203.378,215.826 221.110 C 216.370 221.930,217.036 222.949,217.307 223.376 C 217.578 223.802,218.880 225.242,220.200 226.576 C 235.387 241.917,260.337 238.840,271.896 220.200 C 277.491 211.178,277.792 197.620,272.602 188.400 C 272.292 187.850,271.655 186.701,271.185 185.847 C 265.122 174.832,248.063 168.248,235.200 171.960 " stroke="none" fill="#fc7c54" fill-rule="evenodd"></path></g></svg>