<?xml version="1.0" encoding="UTF-8" standalone="no"?>
<!DOCTYPE svg PUBLIC "-//W3C//DTD SVG 1.1//EN" "http://www.w3.org/Graphics/SVG/1.1/DTD/svg11.dtd">
<svg version="1.1" xmlns="http://www.w3.org/2000/svg" xmlns:xlink="http://www.w3.org/1999/xlink" preserveAspectRatio="xMidYMid meet" viewBox="0 0 640 640" width="640" height="640"><defs><path d="M565.7 54.3C576.75 54.3 585.7 63.25 585.7 74.3C585.7 176.58 585.7 463.42 585.7 565.7C585.7 576.75 576.75 585.7 565.7 585.7C463.42 585.7 176.58 585.7 74.3 585.7C63.25 585.7 54.3 576.75 54.3 565.7C54.3 463.42 54.3 176.58 54.3 74.3C54.3 63.25 63.25 54.3 74.3 54.3C176.58 54.3 463.42 54.3 565.7 54.3Z" id="enDBmNQLq"></path><path d="M334.9 325.76C334.9 368.61 300.11 403.4 257.26 403.4C214.4 403.4 179.61 368.61 179.61 325.76C179.61 282.9 214.4 248.11 257.26 248.11C300.11 248.11 334.9 282.9 334.9 325.76Z" id="c3jmIQfwJ"></path><clipPath id="clipdLU4iy8HT"><use xlink:href="#c3jmIQfwJ" opacity="1"></use></clipPath><path d="M461.3 325.76C461.3 368.61 426.51 403.4 383.66 403.4C340.8 403.4 306.01 368.61 306.01 325.76C306.01 282.9 340.8 248.11 383.66 248.11C426.51 248.11 461.3 282.9 461.3 325.76Z" id="a5i4vJijOy"></path><clipPath id="clipg1y8xF8hU7"><use xlink:href="#a5i4vJijOy" opacity="1"></use></clipPath><path d="M586.7 195.76C586.7 238.61 551.91 273.4 509.05 273.4C466.2 273.4 431.41 238.61 431.41 195.76C431.41 152.9 466.2 118.11 509.05 118.11C551.91 118.11 586.7 152.9 586.7 195.76Z" id="a1BXoUcSCF"></path><clipPath id="clipb1V9TrcnXf"><use xlink:href="#a1BXoUcSCF" opacity="1"></use></clipPath><path d="M446 327.76L446 196.76" id="bHQY0e5ni"></path><path d="M586.7 69.15C586.7 77.62 579.82 84.5 571.35 84.5C562.88 84.5 556 77.62 556 69.15C556 60.68 562.88 53.8 571.35 53.8C579.82 53.8 586.7 60.68 586.7 69.15Z" id="awYmpRo6m"></path><path d="M571.35 191.5L571.35 72.5" id="c2JVkQPAg"></path></defs><g><g><g><use xlink:href="#enDBmNQLq" opacity="1" fill="#fc7c54" fill-opacity="1"></use></g><g><g clip-path="url(#clipdLU4iy8HT)"><use xlink:href="#c3jmIQfwJ" opacity="1" fill-opacity="0" stroke="#ffffff" stroke-width="64" stroke-opacity="1"></use></g></g><g><g clip-path="url(#clipg1y8xF8hU7)"><use xlink:href="#a5i4vJijOy" opacity="1" fill-opacity="0" stroke="#ffffff" stroke-width="64" stroke-opacity="1"></use></g></g><g><g clip-path="url(#clipb1V9TrcnXf)"><use xlink:href="#a1BXoUcSCF" opacity="1" fill-opacity="0" stroke="#ffffff" stroke-width="64" stroke-opacity="1"></use></g></g><g><g><use xlink:href="#bHQY0e5ni" opacity="1" fill-opacity="0" stroke="#ffffff" stroke-width="30" stroke-opacity="1"></use></g></g><g><use xlink:href="#awYmpRo6m" opacity="1" fill="#ffffff" fill-opacity="1"></use></g><g><g><use xlink:href="#c2JVkQPAg" opacity="1" fill-opacity="0" stroke="#ffffff" stroke-width="30" stroke-opacity="1"></use></g></g></g></g></svg>